<?xml version="1.0" encoding="UTF-8"?>

<svg version="1.2" baseProfile="tiny" width="102.76mm" height="116.64mm" viewBox="5648 15806 10276 11664" preserveAspectRatio="xMidYMid" fill-rule="evenodd" stroke-width="28.222" stroke-linejoin="round" xmlns="http://www.w3.org/2000/svg" xmlns:xlink="http://www.w3.org/1999/xlink" xml:space="preserve">
 <g visibility="visible" id="Slide_1">
  <g>
   <path fill="rgb(156,85,186)" stroke="none" d="M 8244,18018 L 8244,18018 8243,18017 8244,18017 8244,17384 8244,17383 8244,16621 9513,17383 9514,17383 9514,17383 9515,17384 9514,17384 9514,18017 9514,18018 9514,18780 8245,18018 8244,18018 Z"/>
   <path fill="none" stroke="rgb(0,0,0)" id="Drawing_1_0" stroke-width="106" stroke-linejoin="round" d="M 8244,18018 L 8244,18018 8243,18017 8244,18017 8244,17384 8244,17383 8244,16621 9513,17383 9514,17383 9514,17383 9515,17384 9514,17384 9514,18017 9514,18018 9514,18780 8245,18018 8244,18018 Z"/>
  </g>
  <g>
   <path fill="rgb(156,85,186)" stroke="none" d="M 13324,18018 L 13324,18018 13325,18017 13324,18017 13324,17384 13324,17383 13324,16621 12055,17383 12054,17383 12054,17383 12053,17384 12054,17384 12054,18017 12054,18018 12054,18780 13323,18018 13324,18018 Z"/>
   <path fill="none" stroke="rgb(0,0,0)" id="Drawing_2_0" stroke-width="106" stroke-linejoin="round" d="M 13324,18018 L 13324,18018 13325,18017 13324,18017 13324,17384 13324,17383 13324,16621 12055,17383 12054,17383 12054,17383 12053,17384 12054,17384 12054,18017 12054,18018 12054,18780 13323,18018 13324,18018 Z"/>
  </g>
  <g>
   <path fill="rgb(153,153,153)" stroke="none" d="M 8240,19669 L 8240,19669 8239,19668 8240,19668 8240,19035 8240,19034 8240,18272 9509,19034 9510,19034 9510,19034 9511,19035 9510,19035 9510,19668 9510,19669 9510,20431 8241,19669 8240,19669 Z"/>
   <path fill="none" stroke="rgb(0,0,0)" id="Drawing_3_0" stroke-width="106" stroke-linejoin="round" d="M 8240,19669 L 8240,19669 8239,19668 8240,19668 8240,19035 8240,19034 8240,18272 9509,19034 9510,19034 9510,19034 9511,19035 9510,19035 9510,19668 9510,19669 9510,20431 8241,19669 8240,19669 Z"/>
  </g>
  <g>
   <path fill="rgb(153,153,153)" stroke="none" d="M 13320,19669 L 13320,19669 13321,19668 13320,19668 13320,19035 13320,19034 13320,18272 12051,19034 12050,19034 12050,19034 12049,19035 12050,19035 12050,19668 12050,19669 12050,20431 13319,19669 13320,19669 Z"/>
   <path fill="none" stroke="rgb(0,0,0)" id="Drawing_4_0" stroke-width="106" stroke-linejoin="round" d="M 13320,19669 L 13320,19669 13321,19668 13320,19668 13320,19035 13320,19034 13320,18272 12051,19034 12050,19034 12050,19034 12049,19035 12050,19035 12050,19668 12050,19669 12050,20431 13319,19669 13320,19669 Z"/>
  </g>
  <g>
   <path fill="rgb(130,71,156)" stroke="none" d="M 10782,19542 L 10782,19542 10781,19541 10782,19541 10782,18908 10782,18907 10782,18145 12051,18907 12052,18907 12052,18907 12053,18908 12052,18908 12052,19541 12052,19542 12052,20304 10783,19542 10782,19542 Z"/>
   <path fill="none" stroke="rgb(0,0,0)" id="Drawing_5_0" stroke-width="106" stroke-linejoin="round" d="M 10782,19542 L 10782,19542 10781,19541 10782,19541 10782,18908 10782,18907 10782,18145 12051,18907 12052,18907 12052,18907 12053,18908 12052,18908 12052,19541 12052,19542 12052,20304 10783,19542 10782,19542 Z"/>
  </g>
  <g>
   <path fill="rgb(130,71,156)" stroke="none" d="M 10784,19542 L 10784,19542 10785,19541 10784,19541 10784,18908 10784,18907 10784,18145 9515,18907 9514,18907 9514,18907 9513,18908 9514,18908 9514,19541 9514,19542 9514,20304 10783,19542 10784,19542 Z"/>
   <path fill="none" stroke="rgb(0,0,0)" id="Drawing_6_0" stroke-width="106" stroke-linejoin="round" d="M 10784,19542 L 10784,19542 10785,19541 10784,19541 10784,18908 10784,18907 10784,18145 9515,18907 9514,18907 9514,18907 9513,18908 9514,18908 9514,19541 9514,19542 9514,20304 10783,19542 10784,19542 Z"/>
  </g>
  <g>
   <path fill="rgb(34,108,156)" stroke="none" d="M 6978,23098 L 6978,23098 6977,23099 6978,23099 6978,23732 6978,23733 6978,24495 8247,23733 8248,23733 8248,23733 8249,23732 8248,23732 8248,23099 8248,23098 8248,22336 6979,23098 6978,23098 Z"/>
   <path fill="none" stroke="rgb(0,0,0)" id="Drawing_7_0" stroke-width="106" stroke-linejoin="round" d="M 6978,23098 L 6978,23098 6977,23099 6978,23099 6978,23732 6978,23733 6978,24495 8247,23733 8248,23733 8248,23733 8249,23732 8248,23732 8248,23099 8248,23098 8248,22336 6979,23098 6978,23098 Z"/>
  </g>
  <g>
   <path fill="rgb(34,108,156)" stroke="none" d="M 6978,20304 L 6978,20304 6977,20305 6978,20305 6978,20938 6978,20939 6978,21701 8247,20939 8248,20939 8248,20939 8249,20938 8248,20938 8248,20305 8248,20304 8248,19542 6979,20304 6978,20304 Z"/>
   <path fill="none" stroke="rgb(0,0,0)" id="Drawing_8_0" stroke-width="106" stroke-linejoin="round" d="M 6978,20304 L 6978,20304 6977,20305 6978,20305 6978,20938 6978,20939 6978,21701 8247,20939 8248,20939 8248,20939 8249,20938 8248,20938 8248,20305 8248,20304 8248,19542 6979,20304 6978,20304 Z"/>
  </g>
  <g>
   <path fill="rgb(47,150,217)" stroke="none" d="M 8247,20939 L 9515,21700 9518,21700 9516,21701 9517,21701 10785,22462 10788,22462 10786,22463 10788,22464 10785,22464 9517,23225 8250,22464 8247,22464 8249,22463 8247,22463 6980,21702 6977,21702 6979,21701 6977,21700 6980,21700 8247,20939 Z"/>
   <path fill="none" stroke="rgb(0,0,0)" id="Drawing_9_0" stroke-width="106" stroke-linejoin="round" d="M 8247,20939 L 9515,21700 9518,21700 9516,21701 9517,21701 10785,22462 10788,22462 10786,22463 10788,22464 10785,22464 9517,23225 8250,22464 8247,22464 8249,22463 8247,22463 6980,21702 6977,21702 6979,21701 6977,21700 6980,21700 8247,20939 Z"/>
  </g>
  <g>
   <path fill="rgb(47,150,217)" stroke="none" d="M 8247,23733 L 9515,24494 9518,24494 9516,24495 9517,24495 10785,25256 10788,25256 10786,25257 10788,25258 10785,25258 9517,26019 8250,25258 8247,25258 8249,25257 8247,25257 6980,24496 6977,24496 6979,24495 6977,24494 6980,24494 8247,23733 Z"/>
   <path fill="none" stroke="rgb(0,0,0)" id="Drawing_10_0" stroke-width="106" stroke-linejoin="round" d="M 8247,23733 L 9515,24494 9518,24494 9516,24495 9517,24495 10785,25256 10788,25256 10786,25257 10788,25258 10785,25258 9517,26019 8250,25258 8247,25258 8249,25257 8247,25257 6980,24496 6977,24496 6979,24495 6977,24494 6980,24494 8247,23733 Z"/>
  </g>
  <g>
   <path fill="rgb(173,87,29)" stroke="none" d="M 14598,23098 L 14598,23098 14599,23099 14598,23099 14598,23732 14598,23733 14598,24495 13329,23733 13328,23733 13328,23733 13327,23732 13328,23732 13328,23099 13328,23098 13328,22336 14597,23098 14598,23098 Z"/>
   <path fill="none" stroke="rgb(0,0,0)" id="Drawing_11_0" stroke-width="106" stroke-linejoin="round" d="M 14598,23098 L 14598,23098 14599,23099 14598,23099 14598,23732 14598,23733 14598,24495 13329,23733 13328,23733 13328,23733 13327,23732 13328,23732 13328,23099 13328,23098 13328,22336 14597,23098 14598,23098 Z"/>
  </g>
  <g>
   <path fill="rgb(173,87,29)" stroke="none" d="M 14598,20304 L 14598,20304 14599,20305 14598,20305 14598,20938 14598,20939 14598,21701 13329,20939 13328,20939 13328,20939 13327,20938 13328,20938 13328,20305 13328,20304 13328,19542 14597,20304 14598,20304 Z"/>
   <path fill="none" stroke="rgb(0,0,0)" id="Drawing_12_0" stroke-width="106" stroke-linejoin="round" d="M 14598,20304 L 14598,20304 14599,20305 14598,20305 14598,20938 14598,20939 14598,21701 13329,20939 13328,20939 13328,20939 13327,20938 13328,20938 13328,20305 13328,20304 13328,19542 14597,20304 14598,20304 Z"/>
  </g>
  <g>
   <path fill="rgb(235,117,39)" stroke="none" d="M 13329,20939 L 12061,21700 12058,21700 12060,21701 12059,21701 10791,22462 10788,22462 10790,22463 10788,22464 10791,22464 12059,23225 13326,22464 13329,22464 13327,22463 13329,22463 14596,21702 14599,21702 14597,21701 14599,21700 14596,21700 13329,20939 Z"/>
   <path fill="none" stroke="rgb(0,0,0)" id="Drawing_13_0" stroke-width="106" stroke-linejoin="round" d="M 13329,20939 L 12061,21700 12058,21700 12060,21701 12059,21701 10791,22462 10788,22462 10790,22463 10788,22464 10791,22464 12059,23225 13326,22464 13329,22464 13327,22463 13329,22463 14596,21702 14599,21702 14597,21701 14599,21700 14596,21700 13329,20939 Z"/>
  </g>
  <g>
   <path fill="rgb(235,117,39)" stroke="none" d="M 13329,23733 L 12061,24494 12058,24494 12060,24495 12059,24495 10791,25256 10788,25256 10790,25257 10788,25258 10791,25258 12059,26019 13326,25258 13329,25258 13327,25257 13329,25257 14596,24496 14599,24496 14597,24495 14599,24494 14596,24494 13329,23733 Z"/>
   <path fill="none" stroke="rgb(0,0,0)" id="Drawing_14_0" stroke-width="106" stroke-linejoin="round" d="M 13329,23733 L 12061,24494 12058,24494 12060,24495 12059,24495 10791,25256 10788,25256 10790,25257 10788,25258 10791,25258 12059,26019 13326,25258 13329,25258 13327,25257 13329,25257 14596,24496 14599,24496 14597,24495 14599,24494 14596,24494 13329,23733 Z"/>
  </g>
  <g>
   <path fill="rgb(34,108,156)" stroke="none" d="M 9519,20431 L 9519,20431 9518,20432 9519,20432 9519,21065 9519,21066 9519,21828 10788,21066 10789,21066 10789,21066 10790,21065 10789,21065 10789,20432 10789,20431 10789,19669 9520,20431 9519,20431 Z"/>
   <path fill="none" stroke="rgb(0,0,0)" id="Drawing_15_0" stroke-width="106" stroke-linejoin="round" d="M 9519,20431 L 9519,20431 9518,20432 9519,20432 9519,21065 9519,21066 9519,21828 10788,21066 10789,21066 10789,21066 10790,21065 10789,21065 10789,20432 10789,20431 10789,19669 9520,20431 9519,20431 Z"/>
  </g>
  <g>
   <path fill="rgb(34,108,156)" stroke="none" d="M 9517,23225 L 9517,23225 9516,23226 9517,23226 9517,23859 9517,23860 9517,24622 10786,23860 10787,23860 10787,23860 10788,23859 10787,23859 10787,23226 10787,23225 10787,22463 9518,23225 9517,23225 Z"/>
   <path fill="none" stroke="rgb(0,0,0)" id="Drawing_16_0" stroke-width="106" stroke-linejoin="round" d="M 9517,23225 L 9517,23225 9516,23226 9517,23226 9517,23859 9517,23860 9517,24622 10786,23860 10787,23860 10787,23860 10788,23859 10787,23859 10787,23226 10787,23225 10787,22463 9518,23225 9517,23225 Z"/>
  </g>
  <g>
   <path fill="rgb(34,108,156)" stroke="none" d="M 9517,26019 L 9517,26019 9516,26020 9517,26020 9517,26653 9517,26654 9517,27416 10786,26654 10787,26654 10787,26654 10788,26653 10787,26653 10787,26020 10787,26019 10787,25257 9518,26019 9517,26019 Z"/>
   <path fill="none" stroke="rgb(0,0,0)" id="Drawing_17_0" stroke-width="106" stroke-linejoin="round" d="M 9517,26019 L 9517,26019 9516,26020 9517,26020 9517,26653 9517,26654 9517,27416 10786,26654 10787,26654 10787,26654 10788,26653 10787,26653 10787,26020 10787,26019 10787,25257 9518,26019 9517,26019 Z"/>
  </g>
  <g>
   <path fill="rgb(173,87,29)" stroke="none" d="M 12059,20431 L 12059,20431 12060,20432 12059,20432 12059,21065 12059,21066 12059,21828 10790,21066 10789,21066 10789,21066 10788,21065 10789,21065 10789,20432 10789,20431 10789,19669 12058,20431 12059,20431 Z"/>
   <path fill="none" stroke="rgb(0,0,0)" id="Drawing_18_0" stroke-width="106" stroke-linejoin="round" d="M 12059,20431 L 12059,20431 12060,20432 12059,20432 12059,21065 12059,21066 12059,21828 10790,21066 10789,21066 10789,21066 10788,21065 10789,21065 10789,20432 10789,20431 10789,19669 12058,20431 12059,20431 Z"/>
  </g>
  <g>
   <path fill="rgb(173,87,29)" stroke="none" d="M 12059,23225 L 12059,23225 12060,23226 12059,23226 12059,23859 12059,23860 12059,24622 10790,23860 10789,23860 10789,23860 10788,23859 10789,23859 10789,23226 10789,23225 10789,22463 12058,23225 12059,23225 Z"/>
   <path fill="none" stroke="rgb(0,0,0)" id="Drawing_19_0" stroke-width="106" stroke-linejoin="round" d="M 12059,23225 L 12059,23225 12060,23226 12059,23226 12059,23859 12059,23860 12059,24622 10790,23860 10789,23860 10789,23860 10788,23859 10789,23859 10789,23226 10789,23225 10789,22463 12058,23225 12059,23225 Z"/>
  </g>
  <g>
   <path fill="rgb(173,87,29)" stroke="none" d="M 12059,26019 L 12059,26019 12060,26020 12059,26020 12059,26653 12059,26654 12059,27416 10790,26654 10789,26654 10789,26654 10788,26653 10789,26653 10789,26020 10789,26019 10789,25257 12058,26019 12059,26019 Z"/>
   <path fill="none" stroke="rgb(0,0,0)" id="Drawing_20_0" stroke-width="106" stroke-linejoin="round" d="M 12059,26019 L 12059,26019 12060,26020 12059,26020 12059,26653 12059,26654 12059,27416 10790,26654 10789,26654 10789,26654 10788,26653 10789,26653 10789,26020 10789,26019 10789,25257 12058,26019 12059,26019 Z"/>
  </g>
  <g>
   <path stroke-width="106" fill="none" stroke="rgb(0,0,0)" d="M 13320,21066 L 13320,21066 13321,21065 13320,21065 13320,20432 13320,20431 13320,19669 12051,20431 12050,20431 12050,20431 12049,20432 12050,20432 12050,21065 12050,21066 12050,21828 13319,21066 13320,21066 Z"/>
  </g>
  <g>
   <path stroke-width="106" fill="none" stroke="rgb(0,0,0)" d="M 13320,23860 L 13320,23860 13321,23859 13320,23859 13320,23226 13320,23225 13320,22463 12051,23225 12050,23225 12050,23225 12049,23226 12050,23226 12050,23859 12050,23860 12050,24622 13319,23860 13320,23860 Z"/>
  </g>
  <g>
   <path fill="rgb(183,98,218)" stroke="none" d="M 9514,15859 L 10149,16240 10149,16240 10782,16620 10784,16620 11417,16240 11418,16241 12054,15859 13321,16620 13325,16620 13323,16621 13324,16622 13322,16622 12054,17383 12054,17383 12053,17383 12054,17383 12054,17383 12687,17763 12690,17763 12688,17764 13321,18144 13325,18144 13323,18145 13324,18146 13322,18146 12054,18907 11419,18526 11419,18526 10786,18146 10786,18146 10784,18146 9516,18907 8249,18146 8245,18146 8247,18145 8246,18144 8248,18144 8880,17765 8876,17765 8878,17764 8877,17763 8879,17763 9513,17382 8881,17003 8878,17003 8880,17002 8247,16622 8243,16622 8245,16621 8244,16620 8246,16620 9514,15859 Z"/>
   <path fill="none" stroke="rgb(0,0,0)" id="Drawing_23_0" stroke-width="106" stroke-linejoin="round" d="M 9514,15859 L 10149,16240 10149,16240 10782,16620 10784,16620 11417,16240 11418,16241 12054,15859 13321,16620 13325,16620 13323,16621 13324,16622 13322,16622 12054,17383 12054,17383 12053,17383 12054,17383 12054,17383 12687,17763 12690,17763 12688,17764 13321,18144 13325,18144 13323,18145 13324,18146 13322,18146 12054,18907 11419,18526 11419,18526 10786,18146 10786,18146 10784,18146 9516,18907 8249,18146 8245,18146 8247,18145 8246,18144 8248,18144 8880,17765 8876,17765 8878,17764 8877,17763 8879,17763 9513,17382 8881,17003 8878,17003 8880,17002 8247,16622 8243,16622 8245,16621 8244,16620 8246,16620 9514,15859 Z"/>
  </g>
  <g>
   <path fill="rgb(47,150,217)" stroke="none" d="M 6977,17383 L 8245,18144 8248,18144 8246,18145 8247,18145 9515,18906 9518,18906 9516,18907 9517,18907 10785,19668 10788,19668 10786,19669 10788,19670 10785,19670 9517,20431 8250,19670 8247,19670 8249,19669 8247,19669 6980,18908 6977,18908 6979,18907 6977,18907 5710,18146 5707,18146 5709,18145 5707,18144 5710,18144 6977,17383 Z"/>
   <path fill="none" stroke="rgb(0,0,0)" id="Drawing_24_0" stroke-width="106" stroke-linejoin="round" d="M 6977,17383 L 8245,18144 8248,18144 8246,18145 8247,18145 9515,18906 9518,18906 9516,18907 9517,18907 10785,19668 10788,19668 10786,19669 10788,19670 10785,19670 9517,20431 8250,19670 8247,19670 8249,19669 8247,19669 6980,18908 6977,18908 6979,18907 6977,18907 5710,18146 5707,18146 5709,18145 5707,18144 5710,18144 6977,17383 Z"/>
  </g>
  <g>
   <path fill="rgb(40,128,185)" stroke="none" d="M 5702,25131 L 5702,25131 5701,25130 5702,25130 5702,18909 5702,18908 5702,18146 6971,18908 6972,18908 6972,18907 9257,20304 9258,20304 9513,20432 9512,20432 9512,21701 9512,21702 9512,21829 9259,21702 9258,21702 6973,20305 6972,20305 6972,21701 9257,23098 9262,23098 9517,23226 9516,23226 9516,24495 9516,24496 9516,24623 9263,24496 9262,24496 6977,23099 6972,23099 6972,24495 9257,25892 9262,25892 9517,26020 9516,26020 9516,27289 9516,27290 9516,27417 9263,27290 9262,27290 6977,25893 6972,25893 5703,25131 5702,25131 Z"/>
   <path fill="none" stroke="rgb(0,0,0)" id="Drawing_25_0" stroke-width="106" stroke-linejoin="round" d="M 5702,25131 L 5702,25131 5701,25130 5702,25130 5702,18909 5702,18908 5702,18146 6971,18908 6972,18908 6972,18907 9257,20304 9258,20304 9513,20432 9512,20432 9512,21701 9512,21702 9512,21829 9259,21702 9258,21702 6973,20305 6972,20305 6972,21701 9257,23098 9262,23098 9517,23226 9516,23226 9516,24495 9516,24496 9516,24623 9263,24496 9262,24496 6977,23099 6972,23099 6972,24495 9257,25892 9262,25892 9517,26020 9516,26020 9516,27289 9516,27290 9516,27417 9263,27290 9262,27290 6977,25893 6972,25893 5703,25131 5702,25131 Z"/>
  </g>
  <g>
   <path fill="rgb(235,117,39)" stroke="none" d="M 14601,17383 L 13333,18144 13330,18144 13332,18145 13331,18145 12063,18906 12060,18906 12062,18907 12061,18907 10793,19668 10790,19668 10792,19669 10790,19670 10793,19670 12061,20431 13328,19670 13331,19670 13329,19669 13331,19669 14598,18908 14601,18908 14599,18907 14601,18907 15868,18146 15871,18146 15869,18145 15871,18144 15868,18144 14601,17383 Z"/>
   <path fill="none" stroke="rgb(0,0,0)" id="Drawing_26_0" stroke-width="106" stroke-linejoin="round" d="M 14601,17383 L 13333,18144 13330,18144 13332,18145 13331,18145 12063,18906 12060,18906 12062,18907 12061,18907 10793,19668 10790,19668 10792,19669 10790,19670 10793,19670 12061,20431 13328,19670 13331,19670 13329,19669 13331,19669 14598,18908 14601,18908 14599,18907 14601,18907 15868,18146 15871,18146 15869,18145 15871,18144 15868,18144 14601,17383 Z"/>
  </g>
  <g>
   <path fill="rgb(204,102,34)" stroke="none" d="M 15861,25131 L 15861,25131 15862,25130 15861,25130 15861,18909 15861,18908 15861,18146 14592,18908 14591,18908 14591,18907 12306,20304 12305,20304 12050,20432 12051,20432 12051,21701 12051,21702 12051,21829 12304,21702 12305,21702 14590,20305 14591,20305 14591,21701 12306,23098 12301,23098 12046,23226 12047,23226 12047,24495 12047,24496 12047,24623 12300,24496 12301,24496 14586,23099 14591,23099 14591,24495 12306,25892 12301,25892 12046,26020 12047,26020 12047,27289 12047,27290 12047,27417 12300,27290 12301,27290 14586,25893 14591,25893 15860,25131 15861,25131 Z"/>
   <path fill="none" stroke="rgb(0,0,0)" id="Drawing_27_0" stroke-width="106" stroke-linejoin="round" d="M 15861,25131 L 15861,25131 15862,25130 15861,25130 15861,18909 15861,18908 15861,18146 14592,18908 14591,18908 14591,18907 12306,20304 12305,20304 12050,20432 12051,20432 12051,21701 12051,21702 12051,21829 12304,21702 12305,21702 14590,20305 14591,20305 14591,21701 12306,23098 12301,23098 12046,23226 12047,23226 12047,24495 12047,24496 12047,24623 12300,24496 12301,24496 14586,23099 14591,23099 14591,24495 12306,25892 12301,25892 12046,26020 12047,26020 12047,27289 12047,27290 12047,27417 12300,27290 12301,27290 14586,25893 14591,25893 15860,25131 15861,25131 Z"/>
  </g>
 </g>
</svg>