<?xml version="1.0" encoding="UTF-8" standalone="no"?>
<!-- Created with Inkscape (http://www.inkscape.org/) -->

<svg
   width="130.76399mm"
   height="76.101601mm"
   viewBox="0 0 130.76399 76.1016"
   version="1.1"
   id="svg5"
   xml:space="preserve"
   xmlns="http://www.w3.org/2000/svg"
   xmlns:svg="http://www.w3.org/2000/svg"><defs
     id="defs2"><clipPath
       clipPathUnits="userSpaceOnUse"
       id="clipPath997"><path
         d="M 0,0.1 H 595.2 V 841.9 H 0 Z"
         clip-rule="evenodd"
         id="path995" /></clipPath><clipPath
       clipPathUnits="userSpaceOnUse"
       id="clipPath1011"><path
         d="m 85.2,740.9 h 1.5 v 30.4 h -1.5 z"
         id="path1009" /></clipPath><clipPath
       clipPathUnits="userSpaceOnUse"
       id="clipPath1027"><path
         d="m 114,740.9 h 1.5 v 30.4 H 114 Z"
         id="path1025" /></clipPath><clipPath
       clipPathUnits="userSpaceOnUse"
       id="clipPath1061"><path
         d="m 517.2,740.9 h 1.5 v 30.4 h -1.5 z"
         id="path1059" /></clipPath><clipPath
       clipPathUnits="userSpaceOnUse"
       id="clipPath1077"><path
         d="m 546,740.9 h 1.5 v 30.4 H 546 Z"
         id="path1075" /></clipPath><clipPath
       clipPathUnits="userSpaceOnUse"
       id="clipPath1099"><path
         d="m 236.4,496.6 h 1.5 V 527 h -1.5 z"
         id="path1097" /></clipPath><clipPath
       clipPathUnits="userSpaceOnUse"
       id="clipPath1115"><path
         d="m 265.2,496.6 h 1.5 V 527 h -1.5 z"
         id="path1113" /></clipPath><clipPath
       clipPathUnits="userSpaceOnUse"
       id="clipPath1537"><path
         d="m 222,740.9 h 1.5 v 30.4 H 222 Z"
         id="path1535" /></clipPath><clipPath
       clipPathUnits="userSpaceOnUse"
       id="clipPath1553"><path
         d="m 250.8,740.9 h 1.5 v 30.4 h -1.5 z"
         id="path1551" /></clipPath><clipPath
       clipPathUnits="userSpaceOnUse"
       id="clipPath1575"><path
         d="m 380.4,740.9 h 1.5 v 30.4 h -1.5 z"
         id="path1573" /></clipPath><clipPath
       clipPathUnits="userSpaceOnUse"
       id="clipPath1591"><path
         d="m 409.2,740.9 h 1.5 v 30.4 h -1.5 z"
         id="path1589" /></clipPath><clipPath
       clipPathUnits="userSpaceOnUse"
       id="clipPath1613"><path
         d="m 373.2,496.6 h 1.5 V 527 h -1.5 z"
         id="path1611" /></clipPath><clipPath
       clipPathUnits="userSpaceOnUse"
       id="clipPath1629"><path
         d="m 402,496.6 h 1.5 V 527 H 402 Z"
         id="path1627" /></clipPath></defs><g
     id="page1"
     transform="matrix(0.39863888,0,0,0.39863888,-22.574303,-21.861218)"><path
       id="use370"
       d="m 60.442157,62.800499 1.386799,-1.590037 c 0.131507,-0.155417 0.239104,-0.251058 1.231382,-0.251058 v -0.514073 c -0.669489,0.02391 -0.693399,0.02391 -1.099875,0.02391 -0.3467,0 -0.860772,0 -1.195517,-0.02391 v 0.514073 c 0.227148,0 0.478207,0.05978 0.478207,0.143462 0,0.02391 -0.05978,0.107596 -0.08369,0.131506 l -1.0401,1.171607 -1.183562,-1.446575 h 0.502118 v -0.514073 c -0.274969,0.02391 -1.087921,0.02391 -1.41071,0.02391 -0.358655,0 -1.004234,0 -1.338979,-0.02391 v 0.514073 h 0.848817 l 1.865006,2.271482 -1.554172,1.757409 c -0.143462,0.167373 -0.227148,0.251059 -1.219427,0.251059 v 0.514072 c 0.71731,-0.02391 0.74122,-0.02391 1.111831,-0.02391 0.3467,0 0.848817,0 1.183561,0.02391 v -0.514072 c -0.227148,0 -0.478206,-0.05978 -0.478206,-0.143462 0,-0.01196 0,-0.02391 0.08369,-0.119552 l 1.195517,-1.350934 1.327023,1.613948 h -0.502117 v 0.514072 c 0.286924,-0.02391 1.08792,-0.02391 1.422665,-0.02391 0.358655,0 0.992279,0 1.327024,0.02391 V 65.239354 H 62.46258 Z" /><path
       id="use372"
       d="m 66.165693,62.809766 c 0.06376,0 0.159403,0 0.159403,-0.09564 0,-0.03188 -0.008,-0.03985 -0.111582,-0.143462 -1.091905,-1.028145 -1.362889,-2.510586 -1.362889,-3.745953 0,-2.295392 0.948443,-3.371357 1.354919,-3.737983 0.111581,-0.103611 0.119552,-0.111581 0.119552,-0.151432 0,-0.03985 -0.03188,-0.09564 -0.111582,-0.09564 -0.127522,0 -0.526027,0.406476 -0.589788,0.478207 -1.067995,1.115815 -1.291158,2.550436 -1.291158,3.506849 0,1.785305 0.74919,3.219925 1.833125,3.985056 z" /><path
       id="use374"
       d="m 70.702286,58.274772 c 0,-0.852802 -0.08767,-1.370859 -0.350685,-1.880946 -0.350685,-0.70137 -0.996264,-0.876713 -1.43462,-0.876713 -1.004234,0 -1.37086,0.749191 -1.482441,0.972354 -0.286924,0.581818 -0.302864,1.370859 -0.302864,1.785305 0,0.526028 0.02391,1.331009 0.406475,1.968618 0.366625,0.589788 0.956414,0.74122 1.37883,0.74122 0.382565,0 1.067995,-0.119551 1.4665,-0.908592 0.294894,-0.573848 0.318805,-1.283188 0.318805,-1.801246 z m -1.785305,2.486675 c -0.270984,0 -0.820922,-0.127522 -0.988294,-0.964383 -0.08767,-0.454297 -0.08767,-1.203487 -0.08767,-1.617933 0,-0.549938 0,-1.107846 0.08767,-1.546202 0.167372,-0.812951 0.789041,-0.892652 0.988294,-0.892652 0.270984,0 0.820921,0.135492 0.980323,0.860772 0.09564,0.438356 0.09564,1.036114 0.09564,1.578082 0,0.470237 0,1.187547 -0.09564,1.633873 -0.167372,0.836862 -0.71731,0.948443 -0.980323,0.948443 z" /><path
       id="use376"
       d="m 73.986034,60.551993 h 1.93076 c 0.08369,0 0.233125,0 0.233125,-0.155417 0,-0.155417 -0.149439,-0.155417 -0.233125,-0.155417 h -1.93076 v -1.936737 c 0,-0.08369 0,-0.233126 -0.155417,-0.233126 -0.155417,0 -0.155417,0.149439 -0.155417,0.233126 v 1.936737 h -1.93076 c -0.08369,0 -0.233126,0 -0.233126,0.155417 0,0.155417 0.14944,0.155417 0.233126,0.155417 h 1.93076 v 1.936737 c 0,0.08369 0,0.233126 0.155417,0.233126 0.155417,0 0.155417,-0.149439 0.155417,-0.233126 z" /><path
       id="use378"
       d="m 79.590069,58.82471 c 0,-0.757161 -0.127522,-1.665753 -0.621669,-2.606227 -0.390536,-0.73325 -1.115816,-1.378829 -1.259278,-1.378829 -0.0797,0 -0.103611,0.05579 -0.103611,0.09564 0,0.03188 0,0.04782 0.09564,0.143462 1.115816,1.060025 1.370859,2.518556 1.370859,3.745953 0,2.287422 -0.948443,3.371357 -1.354919,3.737983 -0.103611,0.103611 -0.111581,0.111581 -0.111581,0.151432 0,0.03985 0.02391,0.09564 0.103611,0.09564 0.127522,0 0.526028,-0.406476 0.589788,-0.478207 1.067995,-1.115815 1.291159,-2.550436 1.291159,-3.506849 z" /></g><g
     id="page1-5"
     transform="matrix(0.39863888,0,0,0.39863888,9.6782423,-21.861218)"><path
       id="use538"
       d="m 60.442157,62.800499 1.386799,-1.590037 c 0.131507,-0.155417 0.239104,-0.251058 1.231382,-0.251058 v -0.514073 c -0.669489,0.02391 -0.693399,0.02391 -1.099875,0.02391 -0.3467,0 -0.860772,0 -1.195517,-0.02391 v 0.514073 c 0.227148,0 0.478207,0.05978 0.478207,0.143462 0,0.02391 -0.05978,0.107596 -0.08369,0.131506 l -1.0401,1.171607 -1.183562,-1.446575 h 0.502118 v -0.514073 c -0.274969,0.02391 -1.087921,0.02391 -1.41071,0.02391 -0.358655,0 -1.004234,0 -1.338979,-0.02391 v 0.514073 h 0.848817 l 1.865006,2.271482 -1.554172,1.757409 c -0.143462,0.167373 -0.227148,0.251059 -1.219427,0.251059 v 0.514072 c 0.71731,-0.02391 0.74122,-0.02391 1.111831,-0.02391 0.3467,0 0.848817,0 1.183561,0.02391 v -0.514072 c -0.227148,0 -0.478206,-0.05978 -0.478206,-0.143462 0,-0.01196 0,-0.02391 0.08369,-0.119552 l 1.195517,-1.350934 1.327023,1.613948 h -0.502117 v 0.514072 c 0.286924,-0.02391 1.08792,-0.02391 1.422665,-0.02391 0.358655,0 0.992279,0 1.327024,0.02391 V 65.239354 H 62.46258 Z" /><path
       id="use540"
       d="m 66.165693,62.809766 c 0.06376,0 0.159403,0 0.159403,-0.09564 0,-0.03188 -0.008,-0.03985 -0.111582,-0.143462 -1.091905,-1.028145 -1.362889,-2.510586 -1.362889,-3.745953 0,-2.295392 0.948443,-3.371357 1.354919,-3.737983 0.111581,-0.103611 0.119552,-0.111581 0.119552,-0.151432 0,-0.03985 -0.03188,-0.09564 -0.111582,-0.09564 -0.127522,0 -0.526027,0.406476 -0.589788,0.478207 -1.067995,1.115815 -1.291158,2.550436 -1.291158,3.506849 0,1.785305 0.74919,3.219925 1.833125,3.985056 z" /><path
       id="use542"
       d="m 70.702286,58.274772 c 0,-0.852802 -0.08767,-1.370859 -0.350685,-1.880946 -0.350685,-0.70137 -0.996264,-0.876713 -1.43462,-0.876713 -1.004234,0 -1.37086,0.749191 -1.482441,0.972354 -0.286924,0.581818 -0.302864,1.370859 -0.302864,1.785305 0,0.526028 0.02391,1.331009 0.406475,1.968618 0.366625,0.589788 0.956414,0.74122 1.37883,0.74122 0.382565,0 1.067995,-0.119551 1.4665,-0.908592 0.294894,-0.573848 0.318805,-1.283188 0.318805,-1.801246 z m -1.785305,2.486675 c -0.270984,0 -0.820922,-0.127522 -0.988294,-0.964383 -0.08767,-0.454297 -0.08767,-1.203487 -0.08767,-1.617933 0,-0.549938 0,-1.107846 0.08767,-1.546202 0.167372,-0.812951 0.789041,-0.892652 0.988294,-0.892652 0.270984,0 0.820921,0.135492 0.980323,0.860772 0.09564,0.438356 0.09564,1.036114 0.09564,1.578082 0,0.470237 0,1.187547 -0.09564,1.633873 -0.167372,0.836862 -0.71731,0.948443 -0.980323,0.948443 z" /><path
       id="use544"
       d="m 75.797242,60.551993 c 0.09564,0 0.245081,0 0.245081,-0.155417 0,-0.155417 -0.14944,-0.155417 -0.245081,-0.155417 h -3.765878 c -0.09564,0 -0.245081,0 -0.245081,0.155417 0,0.155417 0.14944,0.155417 0.245081,0.155417 z" /><path
       id="use546"
       d="m 79.756123,58.82471 c 0,-0.757161 -0.127522,-1.665753 -0.621669,-2.606227 -0.390536,-0.73325 -1.115816,-1.378829 -1.259278,-1.378829 -0.0797,0 -0.103611,0.05579 -0.103611,0.09564 0,0.03188 0,0.04782 0.09564,0.143462 1.115816,1.060025 1.370859,2.518556 1.370859,3.745953 0,2.287422 -0.948443,3.371357 -1.354919,3.737983 -0.103611,0.103611 -0.111581,0.111581 -0.111581,0.151432 0,0.03985 0.02391,0.09564 0.103611,0.09564 0.127522,0 0.526028,-0.406476 0.589788,-0.478207 1.067995,-1.115815 1.291159,-2.550436 1.291159,-3.506849 z" /></g><g
     id="page1-8"
     transform="matrix(0.39863888,0,0,0.39863888,25.125509,-21.861218)"><path
       id="use659"
       d="m 60.442157,62.800499 1.386799,-1.590037 c 0.131507,-0.155417 0.239104,-0.251058 1.231382,-0.251058 v -0.514073 c -0.669489,0.02391 -0.693399,0.02391 -1.099875,0.02391 -0.3467,0 -0.860772,0 -1.195517,-0.02391 v 0.514073 c 0.227148,0 0.478207,0.05978 0.478207,0.143462 0,0.02391 -0.05978,0.107596 -0.08369,0.131506 l -1.0401,1.171607 -1.183562,-1.446575 h 0.502118 v -0.514073 c -0.274969,0.02391 -1.087921,0.02391 -1.41071,0.02391 -0.358655,0 -1.004234,0 -1.338979,-0.02391 v 0.514073 h 0.848817 l 1.865006,2.271482 -1.554172,1.757409 c -0.143462,0.167373 -0.227148,0.251059 -1.219427,0.251059 v 0.514072 c 0.71731,-0.02391 0.74122,-0.02391 1.111831,-0.02391 0.3467,0 0.848817,0 1.183561,0.02391 v -0.514072 c -0.227148,0 -0.478206,-0.05978 -0.478206,-0.143462 0,-0.01196 0,-0.02391 0.08369,-0.119552 l 1.195517,-1.350934 1.327023,1.613948 h -0.502117 v 0.514072 c 0.286924,-0.02391 1.08792,-0.02391 1.422665,-0.02391 0.358655,0 0.992279,0 1.327024,0.02391 V 65.239354 H 62.46258 Z" /><path
       id="use661"
       d="m 66.165693,62.809766 c 0.06376,0 0.159403,0 0.159403,-0.09564 0,-0.03188 -0.008,-0.03985 -0.111582,-0.143462 -1.091905,-1.028145 -1.362889,-2.510586 -1.362889,-3.745953 0,-2.295392 0.948443,-3.371357 1.354919,-3.737983 0.111581,-0.103611 0.119552,-0.111581 0.119552,-0.151432 0,-0.03985 -0.03188,-0.09564 -0.111582,-0.09564 -0.127522,0 -0.526027,0.406476 -0.589788,0.478207 -1.067995,1.115815 -1.291158,2.550436 -1.291158,3.506849 0,1.785305 0.74919,3.219925 1.833125,3.985056 z" /><path
       id="use663"
       d="m 69.307516,55.740277 c 0,-0.215193 -0.01594,-0.223164 -0.231133,-0.223164 -0.326775,0.318805 -0.749191,0.510088 -1.506351,0.510088 v 0.263013 c 0.215193,0 0.645579,0 1.107845,-0.215193 v 4.088668 c 0,0.294894 -0.02391,0.390535 -0.781071,0.390535 h -0.278954 v 0.263014 c 0.326775,-0.02391 1.012205,-0.02391 1.37086,-0.02391 0.358655,0 1.052055,0 1.378829,0.02391 v -0.263014 h -0.278954 c -0.75716,0 -0.781071,-0.09564 -0.781071,-0.390535 z" /><path
       id="use665"
       d="m 75.797242,60.551993 c 0.09564,0 0.245081,0 0.245081,-0.155417 0,-0.155417 -0.14944,-0.155417 -0.245081,-0.155417 h -3.765878 c -0.09564,0 -0.245081,0 -0.245081,0.155417 0,0.155417 0.14944,0.155417 0.245081,0.155417 z" /><path
       id="use667"
       d="m 79.756123,58.82471 c 0,-0.757161 -0.127522,-1.665753 -0.621669,-2.606227 -0.390536,-0.73325 -1.115816,-1.378829 -1.259278,-1.378829 -0.0797,0 -0.103611,0.05579 -0.103611,0.09564 0,0.03188 0,0.04782 0.09564,0.143462 1.115816,1.060025 1.370859,2.518556 1.370859,3.745953 0,2.287422 -0.948443,3.371357 -1.354919,3.737983 -0.103611,0.103611 -0.111581,0.111581 -0.111581,0.151432 0,0.03985 0.02391,0.09564 0.103611,0.09564 0.127522,0 0.526028,-0.406476 0.589788,-0.478207 1.067995,-1.115815 1.291159,-2.550436 1.291159,-3.506849 z" /></g><g
     id="page1-1"
     transform="matrix(0.39863888,0,0,0.39863888,-7.2210432,-21.861218)"><path
       id="use748"
       d="m 60.442157,62.800499 1.386799,-1.590037 c 0.131507,-0.155417 0.239104,-0.251058 1.231382,-0.251058 v -0.514073 c -0.669489,0.02391 -0.693399,0.02391 -1.099875,0.02391 -0.3467,0 -0.860772,0 -1.195517,-0.02391 v 0.514073 c 0.227148,0 0.478207,0.05978 0.478207,0.143462 0,0.02391 -0.05978,0.107596 -0.08369,0.131506 l -1.0401,1.171607 -1.183562,-1.446575 h 0.502118 v -0.514073 c -0.274969,0.02391 -1.087921,0.02391 -1.41071,0.02391 -0.358655,0 -1.004234,0 -1.338979,-0.02391 v 0.514073 h 0.848817 l 1.865006,2.271482 -1.554172,1.757409 c -0.143462,0.167373 -0.227148,0.251059 -1.219427,0.251059 v 0.514072 c 0.71731,-0.02391 0.74122,-0.02391 1.111831,-0.02391 0.3467,0 0.848817,0 1.183561,0.02391 v -0.514072 c -0.227148,0 -0.478206,-0.05978 -0.478206,-0.143462 0,-0.01196 0,-0.02391 0.08369,-0.119552 l 1.195517,-1.350934 1.327023,1.613948 h -0.502117 v 0.514072 c 0.286924,-0.02391 1.08792,-0.02391 1.422665,-0.02391 0.358655,0 0.992279,0 1.327024,0.02391 V 65.239354 H 62.46258 Z" /><path
       id="use750"
       d="m 66.165693,62.809766 c 0.06376,0 0.159403,0 0.159403,-0.09564 0,-0.03188 -0.008,-0.03985 -0.111582,-0.143462 -1.091905,-1.028145 -1.362889,-2.510586 -1.362889,-3.745953 0,-2.295392 0.948443,-3.371357 1.354919,-3.737983 0.111581,-0.103611 0.119552,-0.111581 0.119552,-0.151432 0,-0.03985 -0.03188,-0.09564 -0.111582,-0.09564 -0.127522,0 -0.526027,0.406476 -0.589788,0.478207 -1.067995,1.115815 -1.291158,2.550436 -1.291158,3.506849 0,1.785305 0.74919,3.219925 1.833125,3.985056 z" /><path
       id="use752"
       d="m 69.307516,55.740277 c 0,-0.215193 -0.01594,-0.223164 -0.231133,-0.223164 -0.326775,0.318805 -0.749191,0.510088 -1.506351,0.510088 v 0.263013 c 0.215193,0 0.645579,0 1.107845,-0.215193 v 4.088668 c 0,0.294894 -0.02391,0.390535 -0.781071,0.390535 h -0.278954 v 0.263014 c 0.326775,-0.02391 1.012205,-0.02391 1.37086,-0.02391 0.358655,0 1.052055,0 1.378829,0.02391 v -0.263014 h -0.278954 c -0.75716,0 -0.781071,-0.09564 -0.781071,-0.390535 z" /><path
       id="use754"
       d="m 73.986034,60.551993 h 1.93076 c 0.08369,0 0.233125,0 0.233125,-0.155417 0,-0.155417 -0.149439,-0.155417 -0.233125,-0.155417 h -1.93076 v -1.936737 c 0,-0.08369 0,-0.233126 -0.155417,-0.233126 -0.155417,0 -0.155417,0.149439 -0.155417,0.233126 v 1.936737 h -1.93076 c -0.08369,0 -0.233126,0 -0.233126,0.155417 0,0.155417 0.14944,0.155417 0.233126,0.155417 h 1.93076 v 1.936737 c 0,0.08369 0,0.233126 0.155417,0.233126 0.155417,0 0.155417,-0.149439 0.155417,-0.233126 z" /><path
       id="use756"
       d="m 79.590069,58.82471 c 0,-0.757161 -0.127522,-1.665753 -0.621669,-2.606227 -0.390536,-0.73325 -1.115816,-1.378829 -1.259278,-1.378829 -0.0797,0 -0.103611,0.05579 -0.103611,0.09564 0,0.03188 0,0.04782 0.09564,0.143462 1.115816,1.060025 1.370859,2.518556 1.370859,3.745953 0,2.287422 -0.948443,3.371357 -1.354919,3.737983 -0.103611,0.103611 -0.111581,0.111581 -0.111581,0.151432 0,0.03985 0.02391,0.09564 0.103611,0.09564 0.127522,0 0.526028,-0.406476 0.589788,-0.478207 1.067995,-1.115815 1.291159,-2.550436 1.291159,-3.506849 z" /></g><g
     id="page1-4"
     transform="matrix(0.39863888,0,0,0.39863888,94.494603,-21.861218)"><path
       id="use931"
       d="m 62.331073,61.222417 c 0.07173,-0.167372 0.119552,-0.263013 0.884683,-0.263013 v -0.514073 c -0.406476,0.02391 -0.454297,0.02391 -0.944459,0.02391 -0.322789,0 -0.346699,0 -1.028144,-0.02391 v 0.514073 c 0.01196,0 0.573848,0 0.573848,0.155417 0,0.03587 -0.03587,0.107596 -0.04782,0.143462 l -1.398754,3.012702 -1.530262,-3.311581 h 0.657534 v -0.514073 c -0.286924,0.02391 -1.099875,0.02391 -1.43462,0.02391 -0.3467,0 -1.052055,0 -1.362889,-0.02391 v 0.514073 h 0.765131 l 2.211706,4.794022 c -0.05978,0.143462 -0.227148,0.490162 -0.286924,0.633624 -0.251059,0.537982 -0.633624,1.362889 -1.470486,1.362889 -0.04782,0 -0.191283,0 -0.322789,-0.07173 0.02391,-0.01196 0.382565,-0.155417 0.382565,-0.609714 0,-0.39452 -0.286924,-0.645579 -0.645579,-0.645579 -0.37061,0 -0.657534,0.251059 -0.657534,0.657535 0,0.561893 0.526027,1.06401 1.243337,1.06401 0.980324,0 1.625903,-0.884683 1.865006,-1.41071 z" /><path
       id="use933"
       d="m 66.352495,62.809766 c 0.06376,0 0.159403,0 0.159403,-0.09564 0,-0.03188 -0.008,-0.03985 -0.111582,-0.143462 -1.091905,-1.028145 -1.362889,-2.510586 -1.362889,-3.745953 0,-2.295392 0.948443,-3.371357 1.354919,-3.737983 0.111581,-0.103611 0.119552,-0.111581 0.119552,-0.151432 0,-0.03985 -0.03188,-0.09564 -0.111582,-0.09564 -0.127522,0 -0.526027,0.406476 -0.589788,0.478207 -1.067995,1.115815 -1.291158,2.550436 -1.291158,3.506849 0,1.785305 0.74919,3.219925 1.833125,3.985056 z" /><path
       id="use935"
       d="m 69.494314,55.740277 c 0,-0.215193 -0.01594,-0.223164 -0.231133,-0.223164 -0.326775,0.318805 -0.749191,0.510088 -1.506351,0.510088 v 0.263013 c 0.215193,0 0.645579,0 1.107845,-0.215193 v 4.088668 c 0,0.294894 -0.02391,0.390535 -0.781071,0.390535 H 67.80465 v 0.263014 c 0.326775,-0.02391 1.012205,-0.02391 1.37086,-0.02391 0.358655,0 1.052055,0 1.378829,0.02391 v -0.263014 h -0.278954 c -0.75716,0 -0.781071,-0.09564 -0.781071,-0.390535 z" /><path
       id="use937"
       d="m 75.98404,60.551993 c 0.09564,0 0.245081,0 0.245081,-0.155417 0,-0.155417 -0.14944,-0.155417 -0.245081,-0.155417 h -3.765878 c -0.09564,0 -0.245081,0 -0.245081,0.155417 0,0.155417 0.14944,0.155417 0.245081,0.155417 z" /><path
       id="use939"
       d="m 79.942921,58.82471 c 0,-0.757161 -0.127522,-1.665753 -0.621669,-2.606227 -0.390536,-0.73325 -1.115816,-1.378829 -1.259278,-1.378829 -0.0797,0 -0.103611,0.05579 -0.103611,0.09564 0,0.03188 0,0.04782 0.09564,0.143462 1.115816,1.060025 1.370859,2.518556 1.370859,3.745953 0,2.287422 -0.948443,3.371357 -1.354919,3.737983 -0.103611,0.103611 -0.111581,0.111581 -0.111581,0.151432 0,0.03985 0.02391,0.09564 0.103611,0.09564 0.127522,0 0.526028,-0.406476 0.589788,-0.478207 1.067995,-1.115815 1.291159,-2.550436 1.291159,-3.506849 z" /></g><g
     id="page1-7"
     transform="matrix(0.39863888,0,0,0.39863888,62.258477,-21.861218)"><path
       id="use909"
       d="m 62.331073,61.222417 c 0.07173,-0.167372 0.119552,-0.263013 0.884683,-0.263013 v -0.514073 c -0.406476,0.02391 -0.454297,0.02391 -0.944459,0.02391 -0.322789,0 -0.346699,0 -1.028144,-0.02391 v 0.514073 c 0.01196,0 0.573848,0 0.573848,0.155417 0,0.03587 -0.03587,0.107596 -0.04782,0.143462 l -1.398754,3.012702 -1.530262,-3.311581 h 0.657534 v -0.514073 c -0.286924,0.02391 -1.099875,0.02391 -1.43462,0.02391 -0.3467,0 -1.052055,0 -1.362889,-0.02391 v 0.514073 h 0.765131 l 2.211706,4.794022 c -0.05978,0.143462 -0.227148,0.490162 -0.286924,0.633624 -0.251059,0.537982 -0.633624,1.362889 -1.470486,1.362889 -0.04782,0 -0.191283,0 -0.322789,-0.07173 0.02391,-0.01196 0.382565,-0.155417 0.382565,-0.609714 0,-0.39452 -0.286924,-0.645579 -0.645579,-0.645579 -0.37061,0 -0.657534,0.251059 -0.657534,0.657535 0,0.561893 0.526027,1.06401 1.243337,1.06401 0.980324,0 1.625903,-0.884683 1.865006,-1.41071 z" /><path
       id="use911"
       d="m 66.352495,62.809766 c 0.06376,0 0.159403,0 0.159403,-0.09564 0,-0.03188 -0.008,-0.03985 -0.111582,-0.143462 -1.091905,-1.028145 -1.362889,-2.510586 -1.362889,-3.745953 0,-2.295392 0.948443,-3.371357 1.354919,-3.737983 0.111581,-0.103611 0.119552,-0.111581 0.119552,-0.151432 0,-0.03985 -0.03188,-0.09564 -0.111582,-0.09564 -0.127522,0 -0.526027,0.406476 -0.589788,0.478207 -1.067995,1.115815 -1.291158,2.550436 -1.291158,3.506849 0,1.785305 0.74919,3.219925 1.833125,3.985056 z" /><path
       id="use913"
       d="m 69.494314,55.740277 c 0,-0.215193 -0.01594,-0.223164 -0.231133,-0.223164 -0.326775,0.318805 -0.749191,0.510088 -1.506351,0.510088 v 0.263013 c 0.215193,0 0.645579,0 1.107845,-0.215193 v 4.088668 c 0,0.294894 -0.02391,0.390535 -0.781071,0.390535 H 67.80465 v 0.263014 c 0.326775,-0.02391 1.012205,-0.02391 1.37086,-0.02391 0.358655,0 1.052055,0 1.378829,0.02391 v -0.263014 h -0.278954 c -0.75716,0 -0.781071,-0.09564 -0.781071,-0.390535 z" /><path
       id="use915"
       d="m 74.172832,60.551993 h 1.93076 c 0.08369,0 0.233125,0 0.233125,-0.155417 0,-0.155417 -0.149439,-0.155417 -0.233125,-0.155417 h -1.93076 v -1.936737 c 0,-0.08369 0,-0.233126 -0.155417,-0.233126 -0.155417,0 -0.155417,0.149439 -0.155417,0.233126 v 1.936737 h -1.93076 c -0.08369,0 -0.233126,0 -0.233126,0.155417 0,0.155417 0.14944,0.155417 0.233126,0.155417 h 1.93076 v 1.936737 c 0,0.08369 0,0.233126 0.155417,0.233126 0.155417,0 0.155417,-0.149439 0.155417,-0.233126 z" /><path
       id="use917"
       d="m 79.776875,58.82471 c 0,-0.757161 -0.127522,-1.665753 -0.621669,-2.606227 -0.390536,-0.73325 -1.115816,-1.378829 -1.259278,-1.378829 -0.0797,0 -0.103611,0.05579 -0.103611,0.09564 0,0.03188 0,0.04782 0.09564,0.143462 1.115816,1.060025 1.370859,2.518556 1.370859,3.745953 0,2.287422 -0.948443,3.371357 -1.354919,3.737983 -0.103611,0.103611 -0.111581,0.111581 -0.111581,0.151432 0,0.03985 0.02391,0.09564 0.103611,0.09564 0.127522,0 0.526028,-0.406476 0.589788,-0.478207 1.067995,-1.115815 1.291159,-2.550436 1.291159,-3.506849 z" /></g><g
     id="page1-13"
     transform="matrix(0.39863888,0,0,0.39863888,79.407512,-21.861218)"><path
       id="use887"
       d="m 62.331073,61.222417 c 0.07173,-0.167372 0.119552,-0.263013 0.884683,-0.263013 v -0.514073 c -0.406476,0.02391 -0.454297,0.02391 -0.944459,0.02391 -0.322789,0 -0.346699,0 -1.028144,-0.02391 v 0.514073 c 0.01196,0 0.573848,0 0.573848,0.155417 0,0.03587 -0.03587,0.107596 -0.04782,0.143462 l -1.398754,3.012702 -1.530262,-3.311581 h 0.657534 v -0.514073 c -0.286924,0.02391 -1.099875,0.02391 -1.43462,0.02391 -0.3467,0 -1.052055,0 -1.362889,-0.02391 v 0.514073 h 0.765131 l 2.211706,4.794022 c -0.05978,0.143462 -0.227148,0.490162 -0.286924,0.633624 -0.251059,0.537982 -0.633624,1.362889 -1.470486,1.362889 -0.04782,0 -0.191283,0 -0.322789,-0.07173 0.02391,-0.01196 0.382565,-0.155417 0.382565,-0.609714 0,-0.39452 -0.286924,-0.645579 -0.645579,-0.645579 -0.37061,0 -0.657534,0.251059 -0.657534,0.657535 0,0.561893 0.526027,1.06401 1.243337,1.06401 0.980324,0 1.625903,-0.884683 1.865006,-1.41071 z" /><path
       id="use889"
       d="m 66.352495,62.809766 c 0.06376,0 0.159403,0 0.159403,-0.09564 0,-0.03188 -0.008,-0.03985 -0.111582,-0.143462 -1.091905,-1.028145 -1.362889,-2.510586 -1.362889,-3.745953 0,-2.295392 0.948443,-3.371357 1.354919,-3.737983 0.111581,-0.103611 0.119552,-0.111581 0.119552,-0.151432 0,-0.03985 -0.03188,-0.09564 -0.111582,-0.09564 -0.127522,0 -0.526027,0.406476 -0.589788,0.478207 -1.067995,1.115815 -1.291158,2.550436 -1.291158,3.506849 0,1.785305 0.74919,3.219925 1.833125,3.985056 z" /><path
       id="use891"
       d="m 70.889084,58.274772 c 0,-0.852802 -0.08767,-1.370859 -0.350685,-1.880946 -0.350685,-0.70137 -0.996264,-0.876713 -1.43462,-0.876713 -1.004234,0 -1.37086,0.749191 -1.482441,0.972354 -0.286924,0.581818 -0.302864,1.370859 -0.302864,1.785305 0,0.526028 0.02391,1.331009 0.406475,1.968618 0.366625,0.589788 0.956414,0.74122 1.37883,0.74122 0.382565,0 1.067995,-0.119551 1.4665,-0.908592 0.294894,-0.573848 0.318805,-1.283188 0.318805,-1.801246 z m -1.785305,2.486675 c -0.270984,0 -0.820922,-0.127522 -0.988294,-0.964383 -0.08767,-0.454297 -0.08767,-1.203487 -0.08767,-1.617933 0,-0.549938 0,-1.107846 0.08767,-1.546202 0.167372,-0.812951 0.789041,-0.892652 0.988294,-0.892652 0.270984,0 0.820921,0.135492 0.980323,0.860772 0.09564,0.438356 0.09564,1.036114 0.09564,1.578082 0,0.470237 0,1.187547 -0.09564,1.633873 -0.167372,0.836862 -0.71731,0.948443 -0.980323,0.948443 z" /><path
       id="use893"
       d="m 75.98404,60.551993 c 0.09564,0 0.245081,0 0.245081,-0.155417 0,-0.155417 -0.14944,-0.155417 -0.245081,-0.155417 h -3.765878 c -0.09564,0 -0.245081,0 -0.245081,0.155417 0,0.155417 0.14944,0.155417 0.245081,0.155417 z" /><path
       id="use895"
       d="m 79.942921,58.82471 c 0,-0.757161 -0.127522,-1.665753 -0.621669,-2.606227 -0.390536,-0.73325 -1.115816,-1.378829 -1.259278,-1.378829 -0.0797,0 -0.103611,0.05579 -0.103611,0.09564 0,0.03188 0,0.04782 0.09564,0.143462 1.115816,1.060025 1.370859,2.518556 1.370859,3.745953 0,2.287422 -0.948443,3.371357 -1.354919,3.737983 -0.103611,0.103611 -0.111581,0.111581 -0.111581,0.151432 0,0.03985 0.02391,0.09564 0.103611,0.09564 0.127522,0 0.526028,-0.406476 0.589788,-0.478207 1.067995,-1.115815 1.291159,-2.550436 1.291159,-3.506849 z" /></g><g
     id="page1-84"
     transform="matrix(0.39863888,0,0,0.39863888,46.967776,-21.861218)"><path
       id="use865"
       d="m 62.331073,61.222417 c 0.07173,-0.167372 0.119552,-0.263013 0.884683,-0.263013 v -0.514073 c -0.406476,0.02391 -0.454297,0.02391 -0.944459,0.02391 -0.322789,0 -0.346699,0 -1.028144,-0.02391 v 0.514073 c 0.01196,0 0.573848,0 0.573848,0.155417 0,0.03587 -0.03587,0.107596 -0.04782,0.143462 l -1.398754,3.012702 -1.530262,-3.311581 h 0.657534 v -0.514073 c -0.286924,0.02391 -1.099875,0.02391 -1.43462,0.02391 -0.3467,0 -1.052055,0 -1.362889,-0.02391 v 0.514073 h 0.765131 l 2.211706,4.794022 c -0.05978,0.143462 -0.227148,0.490162 -0.286924,0.633624 -0.251059,0.537982 -0.633624,1.362889 -1.470486,1.362889 -0.04782,0 -0.191283,0 -0.322789,-0.07173 0.02391,-0.01196 0.382565,-0.155417 0.382565,-0.609714 0,-0.39452 -0.286924,-0.645579 -0.645579,-0.645579 -0.37061,0 -0.657534,0.251059 -0.657534,0.657535 0,0.561893 0.526027,1.06401 1.243337,1.06401 0.980324,0 1.625903,-0.884683 1.865006,-1.41071 z" /><path
       id="use867"
       d="m 66.352495,62.809766 c 0.06376,0 0.159403,0 0.159403,-0.09564 0,-0.03188 -0.008,-0.03985 -0.111582,-0.143462 -1.091905,-1.028145 -1.362889,-2.510586 -1.362889,-3.745953 0,-2.295392 0.948443,-3.371357 1.354919,-3.737983 0.111581,-0.103611 0.119552,-0.111581 0.119552,-0.151432 0,-0.03985 -0.03188,-0.09564 -0.111582,-0.09564 -0.127522,0 -0.526027,0.406476 -0.589788,0.478207 -1.067995,1.115815 -1.291158,2.550436 -1.291158,3.506849 0,1.785305 0.74919,3.219925 1.833125,3.985056 z" /><path
       id="use869"
       d="m 70.889084,58.274772 c 0,-0.852802 -0.08767,-1.370859 -0.350685,-1.880946 -0.350685,-0.70137 -0.996264,-0.876713 -1.43462,-0.876713 -1.004234,0 -1.37086,0.749191 -1.482441,0.972354 -0.286924,0.581818 -0.302864,1.370859 -0.302864,1.785305 0,0.526028 0.02391,1.331009 0.406475,1.968618 0.366625,0.589788 0.956414,0.74122 1.37883,0.74122 0.382565,0 1.067995,-0.119551 1.4665,-0.908592 0.294894,-0.573848 0.318805,-1.283188 0.318805,-1.801246 z m -1.785305,2.486675 c -0.270984,0 -0.820922,-0.127522 -0.988294,-0.964383 -0.08767,-0.454297 -0.08767,-1.203487 -0.08767,-1.617933 0,-0.549938 0,-1.107846 0.08767,-1.546202 0.167372,-0.812951 0.789041,-0.892652 0.988294,-0.892652 0.270984,0 0.820921,0.135492 0.980323,0.860772 0.09564,0.438356 0.09564,1.036114 0.09564,1.578082 0,0.470237 0,1.187547 -0.09564,1.633873 -0.167372,0.836862 -0.71731,0.948443 -0.980323,0.948443 z" /><path
       id="use871"
       d="m 74.172832,60.551993 h 1.93076 c 0.08369,0 0.233125,0 0.233125,-0.155417 0,-0.155417 -0.149439,-0.155417 -0.233125,-0.155417 h -1.93076 v -1.936737 c 0,-0.08369 0,-0.233126 -0.155417,-0.233126 -0.155417,0 -0.155417,0.149439 -0.155417,0.233126 v 1.936737 h -1.93076 c -0.08369,0 -0.233126,0 -0.233126,0.155417 0,0.155417 0.14944,0.155417 0.233126,0.155417 h 1.93076 v 1.936737 c 0,0.08369 0,0.233126 0.155417,0.233126 0.155417,0 0.155417,-0.149439 0.155417,-0.233126 z" /><path
       id="use873"
       d="m 79.776875,58.82471 c 0,-0.757161 -0.127522,-1.665753 -0.621669,-2.606227 -0.390536,-0.73325 -1.115816,-1.378829 -1.259278,-1.378829 -0.0797,0 -0.103611,0.05579 -0.103611,0.09564 0,0.03188 0,0.04782 0.09564,0.143462 1.115816,1.060025 1.370859,2.518556 1.370859,3.745953 0,2.287422 -0.948443,3.371357 -1.354919,3.737983 -0.103611,0.103611 -0.111581,0.111581 -0.111581,0.151432 0,0.03985 0.02391,0.09564 0.103611,0.09564 0.127522,0 0.526028,-0.406476 0.589788,-0.478207 1.067995,-1.115815 1.291159,-2.550436 1.291159,-3.506849 z" /></g><g
     id="page1-80"
     transform="matrix(0.39863888,0,0,0.39863888,28.092077,49.889725)"><path
       id="use1289"
       d="m 61.673539,60.899628 c 0.107596,-0.131507 0.107596,-0.155417 0.107596,-0.227148 0,-0.227149 -0.119551,-0.227149 -0.346699,-0.227149 h -4.327771 l -0.131507,2.056289 h 0.502117 c 0.07173,-1.135741 0.334745,-1.661768 1.661768,-1.661768 h 1.075965 l -3.323536,4.435367 c -0.107597,0.131507 -0.107597,0.155417 -0.107597,0.239104 0,0.239103 0.107597,0.239103 0.3467,0.239103 h 4.483188 l 0.203238,-2.367123 h -0.502117 c -0.09564,1.267248 -0.358655,1.936737 -1.865006,1.936737 h -1.087921 z" /><path
       id="use1291"
       d="m 65.044897,62.809766 c 0.06376,0 0.159403,0 0.159403,-0.09564 0,-0.03188 -0.008,-0.03985 -0.111582,-0.143462 -1.091905,-1.028145 -1.362889,-2.510586 -1.362889,-3.745953 0,-2.295392 0.948443,-3.371357 1.354919,-3.737983 0.111581,-0.103611 0.119552,-0.111581 0.119552,-0.151432 0,-0.03985 -0.03188,-0.09564 -0.111582,-0.09564 -0.127522,0 -0.526027,0.406476 -0.589788,0.478207 -1.067995,1.115815 -1.291158,2.550436 -1.291158,3.506849 0,1.785305 0.74919,3.219925 1.833125,3.985056 z" /><path
       id="use1293"
       d="m 68.18672,55.740277 c 0,-0.215193 -0.01594,-0.223164 -0.231133,-0.223164 -0.326775,0.318805 -0.749191,0.510088 -1.506351,0.510088 v 0.263013 c 0.215193,0 0.645579,0 1.107845,-0.215193 v 4.088668 c 0,0.294894 -0.02391,0.390535 -0.781071,0.390535 h -0.278954 v 0.263014 c 0.326775,-0.02391 1.012205,-0.02391 1.37086,-0.02391 0.358655,0 1.052055,0 1.378829,0.02391 v -0.263014 h -0.278954 c -0.75716,0 -0.781071,-0.09564 -0.781071,-0.390535 z" /><path
       id="use1295"
       d="m 72.865238,60.551993 h 1.93076 c 0.08369,0 0.233125,0 0.233125,-0.155417 0,-0.155417 -0.149439,-0.155417 -0.233125,-0.155417 h -1.93076 v -1.936737 c 0,-0.08369 0,-0.233126 -0.155417,-0.233126 -0.155417,0 -0.155417,0.149439 -0.155417,0.233126 v 1.936737 h -1.93076 c -0.08369,0 -0.233126,0 -0.233126,0.155417 0,0.155417 0.14944,0.155417 0.233126,0.155417 h 1.93076 v 1.936737 c 0,0.08369 0,0.233126 0.155417,0.233126 0.155417,0 0.155417,-0.149439 0.155417,-0.233126 z" /><path
       id="use1297"
       d="m 78.469273,58.82471 c 0,-0.757161 -0.127522,-1.665753 -0.621669,-2.606227 -0.390536,-0.73325 -1.115816,-1.378829 -1.259278,-1.378829 -0.0797,0 -0.103611,0.05579 -0.103611,0.09564 0,0.03188 0,0.04782 0.09564,0.143462 1.115816,1.060025 1.370859,2.518556 1.370859,3.745953 0,2.287422 -0.948443,3.371357 -1.354919,3.737983 -0.103611,0.103611 -0.111581,0.111581 -0.111581,0.151432 0,0.03985 0.02391,0.09564 0.103611,0.09564 0.127522,0 0.526028,-0.406476 0.589788,-0.478207 1.067995,-1.115815 1.291159,-2.550436 1.291159,-3.506849 z" /></g><g
     id="page1-46"
     transform="matrix(0.39863888,0,0,0.39863888,60.322245,49.889725)"><path
       id="use1267"
       d="m 61.673539,60.899628 c 0.107596,-0.131507 0.107596,-0.155417 0.107596,-0.227148 0,-0.227149 -0.119551,-0.227149 -0.346699,-0.227149 h -4.327771 l -0.131507,2.056289 h 0.502117 c 0.07173,-1.135741 0.334745,-1.661768 1.661768,-1.661768 h 1.075965 l -3.323536,4.435367 c -0.107597,0.131507 -0.107597,0.155417 -0.107597,0.239104 0,0.239103 0.107597,0.239103 0.3467,0.239103 h 4.483188 l 0.203238,-2.367123 h -0.502117 c -0.09564,1.267248 -0.358655,1.936737 -1.865006,1.936737 h -1.087921 z" /><path
       id="use1269"
       d="m 65.044897,62.809766 c 0.06376,0 0.159403,0 0.159403,-0.09564 0,-0.03188 -0.008,-0.03985 -0.111582,-0.143462 -1.091905,-1.028145 -1.362889,-2.510586 -1.362889,-3.745953 0,-2.295392 0.948443,-3.371357 1.354919,-3.737983 0.111581,-0.103611 0.119552,-0.111581 0.119552,-0.151432 0,-0.03985 -0.03188,-0.09564 -0.111582,-0.09564 -0.127522,0 -0.526027,0.406476 -0.589788,0.478207 -1.067995,1.115815 -1.291158,2.550436 -1.291158,3.506849 0,1.785305 0.74919,3.219925 1.833125,3.985056 z" /><path
       id="use1271"
       d="m 68.18672,55.740277 c 0,-0.215193 -0.01594,-0.223164 -0.231133,-0.223164 -0.326775,0.318805 -0.749191,0.510088 -1.506351,0.510088 v 0.263013 c 0.215193,0 0.645579,0 1.107845,-0.215193 v 4.088668 c 0,0.294894 -0.02391,0.390535 -0.781071,0.390535 h -0.278954 v 0.263014 c 0.326775,-0.02391 1.012205,-0.02391 1.37086,-0.02391 0.358655,0 1.052055,0 1.378829,0.02391 v -0.263014 h -0.278954 c -0.75716,0 -0.781071,-0.09564 -0.781071,-0.390535 z" /><path
       id="use1273"
       d="m 74.676446,60.551993 c 0.09564,0 0.245081,0 0.245081,-0.155417 0,-0.155417 -0.14944,-0.155417 -0.245081,-0.155417 h -3.765878 c -0.09564,0 -0.245081,0 -0.245081,0.155417 0,0.155417 0.14944,0.155417 0.245081,0.155417 z" /><path
       id="use1275"
       d="m 78.635327,58.82471 c 0,-0.757161 -0.127522,-1.665753 -0.621669,-2.606227 -0.390536,-0.73325 -1.115816,-1.378829 -1.259278,-1.378829 -0.0797,0 -0.103611,0.05579 -0.103611,0.09564 0,0.03188 0,0.04782 0.09564,0.143462 1.115816,1.060025 1.370859,2.518556 1.370859,3.745953 0,2.287422 -0.948443,3.371357 -1.354919,3.737983 -0.103611,0.103611 -0.111581,0.111581 -0.111581,0.151432 0,0.03985 0.02391,0.09564 0.103611,0.09564 0.127522,0 0.526028,-0.406476 0.589788,-0.478207 1.067995,-1.115815 1.291159,-2.550436 1.291159,-3.506849 z" /></g><g
     id="page1-2"
     transform="matrix(0.39863888,0,0,0.39863888,45.214152,49.889725)"><path
       id="use1245"
       d="m 61.673539,60.899628 c 0.107596,-0.131507 0.107596,-0.155417 0.107596,-0.227148 0,-0.227149 -0.119551,-0.227149 -0.346699,-0.227149 h -4.327771 l -0.131507,2.056289 h 0.502117 c 0.07173,-1.135741 0.334745,-1.661768 1.661768,-1.661768 h 1.075965 l -3.323536,4.435367 c -0.107597,0.131507 -0.107597,0.155417 -0.107597,0.239104 0,0.239103 0.107597,0.239103 0.3467,0.239103 h 4.483188 l 0.203238,-2.367123 h -0.502117 c -0.09564,1.267248 -0.358655,1.936737 -1.865006,1.936737 h -1.087921 z" /><path
       id="use1247"
       d="m 65.044897,62.809766 c 0.06376,0 0.159403,0 0.159403,-0.09564 0,-0.03188 -0.008,-0.03985 -0.111582,-0.143462 -1.091905,-1.028145 -1.362889,-2.510586 -1.362889,-3.745953 0,-2.295392 0.948443,-3.371357 1.354919,-3.737983 0.111581,-0.103611 0.119552,-0.111581 0.119552,-0.151432 0,-0.03985 -0.03188,-0.09564 -0.111582,-0.09564 -0.127522,0 -0.526027,0.406476 -0.589788,0.478207 -1.067995,1.115815 -1.291158,2.550436 -1.291158,3.506849 0,1.785305 0.74919,3.219925 1.833125,3.985056 z" /><path
       id="use1249"
       d="m 69.58149,58.274772 c 0,-0.852802 -0.08767,-1.370859 -0.350685,-1.880946 -0.350685,-0.70137 -0.996264,-0.876713 -1.43462,-0.876713 -1.004234,0 -1.37086,0.749191 -1.482441,0.972354 -0.286924,0.581818 -0.302864,1.370859 -0.302864,1.785305 0,0.526028 0.02391,1.331009 0.406475,1.968618 0.366625,0.589788 0.956414,0.74122 1.37883,0.74122 0.382565,0 1.067995,-0.119551 1.4665,-0.908592 0.294894,-0.573848 0.318805,-1.283188 0.318805,-1.801246 z m -1.785305,2.486675 c -0.270984,0 -0.820922,-0.127522 -0.988294,-0.964383 -0.08767,-0.454297 -0.08767,-1.203487 -0.08767,-1.617933 0,-0.549938 0,-1.107846 0.08767,-1.546202 0.167372,-0.812951 0.789041,-0.892652 0.988294,-0.892652 0.270984,0 0.820921,0.135492 0.980323,0.860772 0.09564,0.438356 0.09564,1.036114 0.09564,1.578082 0,0.470237 0,1.187547 -0.09564,1.633873 -0.167372,0.836862 -0.71731,0.948443 -0.980323,0.948443 z" /><path
       id="use1251"
       d="m 74.676446,60.551993 c 0.09564,0 0.245081,0 0.245081,-0.155417 0,-0.155417 -0.14944,-0.155417 -0.245081,-0.155417 h -3.765878 c -0.09564,0 -0.245081,0 -0.245081,0.155417 0,0.155417 0.14944,0.155417 0.245081,0.155417 z" /><path
       id="use1253"
       d="m 78.635327,58.82471 c 0,-0.757161 -0.127522,-1.665753 -0.621669,-2.606227 -0.390536,-0.73325 -1.115816,-1.378829 -1.259278,-1.378829 -0.0797,0 -0.103611,0.05579 -0.103611,0.09564 0,0.03188 0,0.04782 0.09564,0.143462 1.115816,1.060025 1.370859,2.518556 1.370859,3.745953 0,2.287422 -0.948443,3.371357 -1.354919,3.737983 -0.103611,0.103611 -0.111581,0.111581 -0.111581,0.151432 0,0.03985 0.02391,0.09564 0.103611,0.09564 0.127522,0 0.526028,-0.406476 0.589788,-0.478207 1.067995,-1.115815 1.291159,-2.550436 1.291159,-3.506849 z" /></g><g
     id="page1-6"
     transform="matrix(0.39863888,0,0,0.39863888,12.852927,49.889725)"><path
       id="use1223"
       d="m 61.673539,60.899628 c 0.107596,-0.131507 0.107596,-0.155417 0.107596,-0.227148 0,-0.227149 -0.119551,-0.227149 -0.346699,-0.227149 h -4.327771 l -0.131507,2.056289 h 0.502117 c 0.07173,-1.135741 0.334745,-1.661768 1.661768,-1.661768 h 1.075965 l -3.323536,4.435367 c -0.107597,0.131507 -0.107597,0.155417 -0.107597,0.239104 0,0.239103 0.107597,0.239103 0.3467,0.239103 h 4.483188 l 0.203238,-2.367123 h -0.502117 c -0.09564,1.267248 -0.358655,1.936737 -1.865006,1.936737 h -1.087921 z" /><path
       id="use1225"
       d="m 65.044897,62.809766 c 0.06376,0 0.159403,0 0.159403,-0.09564 0,-0.03188 -0.008,-0.03985 -0.111582,-0.143462 -1.091905,-1.028145 -1.362889,-2.510586 -1.362889,-3.745953 0,-2.295392 0.948443,-3.371357 1.354919,-3.737983 0.111581,-0.103611 0.119552,-0.111581 0.119552,-0.151432 0,-0.03985 -0.03188,-0.09564 -0.111582,-0.09564 -0.127522,0 -0.526027,0.406476 -0.589788,0.478207 -1.067995,1.115815 -1.291158,2.550436 -1.291158,3.506849 0,1.785305 0.74919,3.219925 1.833125,3.985056 z" /><path
       id="use1227"
       d="m 69.58149,58.274772 c 0,-0.852802 -0.08767,-1.370859 -0.350685,-1.880946 -0.350685,-0.70137 -0.996264,-0.876713 -1.43462,-0.876713 -1.004234,0 -1.37086,0.749191 -1.482441,0.972354 -0.286924,0.581818 -0.302864,1.370859 -0.302864,1.785305 0,0.526028 0.02391,1.331009 0.406475,1.968618 0.366625,0.589788 0.956414,0.74122 1.37883,0.74122 0.382565,0 1.067995,-0.119551 1.4665,-0.908592 0.294894,-0.573848 0.318805,-1.283188 0.318805,-1.801246 z m -1.785305,2.486675 c -0.270984,0 -0.820922,-0.127522 -0.988294,-0.964383 -0.08767,-0.454297 -0.08767,-1.203487 -0.08767,-1.617933 0,-0.549938 0,-1.107846 0.08767,-1.546202 0.167372,-0.812951 0.789041,-0.892652 0.988294,-0.892652 0.270984,0 0.820921,0.135492 0.980323,0.860772 0.09564,0.438356 0.09564,1.036114 0.09564,1.578082 0,0.470237 0,1.187547 -0.09564,1.633873 -0.167372,0.836862 -0.71731,0.948443 -0.980323,0.948443 z" /><path
       id="use1229"
       d="m 72.865238,60.551993 h 1.93076 c 0.08369,0 0.233125,0 0.233125,-0.155417 0,-0.155417 -0.149439,-0.155417 -0.233125,-0.155417 h -1.93076 v -1.936737 c 0,-0.08369 0,-0.233126 -0.155417,-0.233126 -0.155417,0 -0.155417,0.149439 -0.155417,0.233126 v 1.936737 h -1.93076 c -0.08369,0 -0.233126,0 -0.233126,0.155417 0,0.155417 0.14944,0.155417 0.233126,0.155417 h 1.93076 v 1.936737 c 0,0.08369 0,0.233126 0.155417,0.233126 0.155417,0 0.155417,-0.149439 0.155417,-0.233126 z" /><path
       id="use1231"
       d="m 78.469273,58.82471 c 0,-0.757161 -0.127522,-1.665753 -0.621669,-2.606227 -0.390536,-0.73325 -1.115816,-1.378829 -1.259278,-1.378829 -0.0797,0 -0.103611,0.05579 -0.103611,0.09564 0,0.03188 0,0.04782 0.09564,0.143462 1.115816,1.060025 1.370859,2.518556 1.370859,3.745953 0,2.287422 -0.948443,3.371357 -1.354919,3.737983 -0.103611,0.103611 -0.111581,0.111581 -0.111581,0.151432 0,0.03985 0.02391,0.09564 0.103611,0.09564 0.127522,0 0.526028,-0.406476 0.589788,-0.478207 1.067995,-1.115815 1.291159,-2.550436 1.291159,-3.506849 z" /></g><g
     id="page1-91"
     transform="matrix(0.39863888,0,0,0.39863888,-14.698722,34.7452)"><path
       id="use1656"
       d="m 65.020986,61.246328 c 0.08369,-0.203238 0.119552,-0.286924 0.812951,-0.286924 v -0.514073 c -0.346699,0.02391 -0.502117,0.02391 -0.932503,0.02391 -0.490162,0 -0.645579,0 -1.075965,-0.02391 v 0.514073 c 0.107597,0 0.6934,0 0.6934,0.155417 0,0.01196 0,0.02391 -0.04782,0.143462 l -1.255292,3.108343 -1.374845,-3.407222 h 0.681445 v -0.514073 c -0.286924,0.02391 -0.992279,0.02391 -1.315069,0.02391 -0.609713,0 -0.633623,0 -1.231382,-0.02391 v 0.514073 h 0.705355 c 0.03587,0.09564 0.09564,0.251058 0.143462,0.358655 0.03587,0.07173 0.155417,0.358655 0.155417,0.418431 0,0.02391 -0.03587,0.107596 -0.04782,0.143462 l -0.908593,2.259526 -1.291158,-3.180074 h 0.681444 v -0.514073 c -0.274969,0.02391 -1.08792,0.02391 -1.41071,0.02391 -0.382565,0 -0.956413,0 -1.315068,-0.02391 v 0.514073 h 0.705355 l 1.829141,4.554919 c 0.08369,0.215193 0.131506,0.298879 0.39452,0.298879 0.131507,0 0.274969,0 0.37061,-0.239104 l 1.267248,-3.168119 1.267248,3.144209 c 0.107596,0.263014 0.239103,0.263014 0.382565,0.263014 0.263014,0 0.298879,-0.07173 0.382566,-0.286924 z" /><path
       id="use1658"
       d="m 68.780886,69.605664 c 0.06376,0 0.159403,0 0.159403,-0.09564 0,-0.03188 -0.008,-0.03985 -0.111582,-0.143462 -1.091905,-1.028145 -1.362889,-2.510586 -1.362889,-3.745953 0,-2.295392 0.948443,-3.371357 1.354919,-3.737983 0.111581,-0.103611 0.119552,-0.111581 0.119552,-0.151432 0,-0.03985 -0.03188,-0.09564 -0.111582,-0.09564 -0.127522,0 -0.526027,0.406476 -0.589788,0.478207 -1.067995,1.115815 -1.291158,2.550436 -1.291158,3.506849 0,1.785305 0.74919,3.219925 1.833125,3.985056 z" /><path
       id="use1660"
       d="m 73.317482,65.07067 c 0,-0.852802 -0.08767,-1.370859 -0.350685,-1.880946 -0.350685,-0.70137 -0.996264,-0.876713 -1.43462,-0.876713 -1.004234,0 -1.37086,0.749191 -1.482441,0.972354 -0.286924,0.581818 -0.302864,1.370859 -0.302864,1.785305 0,0.526028 0.02391,1.331009 0.406475,1.968618 0.366625,0.589788 0.956414,0.74122 1.37883,0.74122 0.382565,0 1.067995,-0.119551 1.4665,-0.908592 0.294894,-0.573848 0.318805,-1.283188 0.318805,-1.801246 z m -1.785305,2.486675 c -0.270984,0 -0.820922,-0.127522 -0.988294,-0.964383 -0.08767,-0.454297 -0.08767,-1.203487 -0.08767,-1.617933 0,-0.549938 0,-1.107846 0.08767,-1.546202 0.167372,-0.812951 0.789041,-0.892652 0.988294,-0.892652 0.270984,0 0.820921,0.135492 0.980323,0.860772 0.09564,0.438356 0.09564,1.036114 0.09564,1.578082 0,0.470237 0,1.187547 -0.09564,1.633873 -0.167372,0.836862 -0.71731,0.948443 -0.980323,0.948443 z" /><path
       id="use1662"
       d="m 76.601223,67.347888 h 1.93076 c 0.08369,0 0.233125,0 0.233125,-0.155417 0,-0.155417 -0.149439,-0.155417 -0.233125,-0.155417 h -1.93076 v -1.936737 c 0,-0.08369 0,-0.233126 -0.155417,-0.233126 -0.155417,0 -0.155417,0.149439 -0.155417,0.233126 v 1.936737 h -1.93076 c -0.08369,0 -0.233126,0 -0.233126,0.155417 0,0.155417 0.14944,0.155417 0.233126,0.155417 h 1.93076 v 1.936737 c 0,0.08369 0,0.233126 0.155417,0.233126 0.155417,0 0.155417,-0.149439 0.155417,-0.233126 z" /><path
       id="use1664"
       d="m 81.232911,67.493584 c 0,0.518058 -0.111582,0.972354 -0.605729,1.466501 -0.03188,0.02391 -0.04782,0.03985 -0.04782,0.0797 0,0.06376 0.06376,0.111582 0.119551,0.111582 0.09564,0 0.757161,-0.629639 0.757161,-1.562142 0,-0.510088 -0.191283,-0.860772 -0.541968,-0.860772 -0.278953,0 -0.438356,0.223163 -0.438356,0.438356 0,0.223163 0.151432,0.446326 0.446327,0.446326 0.191282,0 0.310834,-0.111582 0.310834,-0.119551 z" /><path
       id="use1666"
       d="m 85.992211,65.07067 c 0,-0.852802 -0.08767,-1.370859 -0.350685,-1.880946 -0.350685,-0.70137 -0.996264,-0.876713 -1.43462,-0.876713 -1.004234,0 -1.37086,0.749191 -1.482441,0.972354 -0.286924,0.581818 -0.302864,1.370859 -0.302864,1.785305 0,0.526028 0.02391,1.331009 0.406475,1.968618 0.366625,0.589788 0.956414,0.74122 1.37883,0.74122 0.382565,0 1.067995,-0.119551 1.4665,-0.908592 0.294894,-0.573848 0.318805,-1.283188 0.318805,-1.801246 z m -1.785305,2.486675 c -0.270984,0 -0.820922,-0.127522 -0.988294,-0.964383 -0.08767,-0.454297 -0.08767,-1.203487 -0.08767,-1.617933 0,-0.549938 0,-1.107846 0.08767,-1.546202 0.167372,-0.812951 0.789041,-0.892652 0.988294,-0.892652 0.270984,0 0.820921,0.135492 0.980323,0.860772 0.09564,0.438356 0.09564,1.036114 0.09564,1.578082 0,0.470237 0,1.187547 -0.09564,1.633873 -0.167372,0.836862 -0.71731,0.948443 -0.980323,0.948443 z" /><path
       id="use1668"
       d="m 89.275959,67.347888 h 1.93076 c 0.08369,0 0.233125,0 0.233125,-0.155417 0,-0.155417 -0.149439,-0.155417 -0.233125,-0.155417 h -1.93076 v -1.936737 c 0,-0.08369 0,-0.233126 -0.155417,-0.233126 -0.155417,0 -0.155417,0.149439 -0.155417,0.233126 v 1.936737 h -1.93076 c -0.08369,0 -0.233126,0 -0.233126,0.155417 0,0.155417 0.14944,0.155417 0.233126,0.155417 h 1.93076 v 1.936737 c 0,0.08369 0,0.233126 0.155417,0.233126 0.155417,0 0.155417,-0.149439 0.155417,-0.233126 z" /><path
       id="use1670"
       d="m 93.90764,67.493584 c 0,0.518058 -0.111582,0.972354 -0.605729,1.466501 -0.03188,0.02391 -0.04782,0.03985 -0.04782,0.0797 0,0.06376 0.06376,0.111582 0.119551,0.111582 0.09564,0 0.757161,-0.629639 0.757161,-1.562142 0,-0.510088 -0.191283,-0.860772 -0.541968,-0.860772 -0.278953,0 -0.438356,0.223163 -0.438356,0.438356 0,0.223163 0.151432,0.446326 0.446327,0.446326 0.191282,0 0.310834,-0.111582 0.310834,-0.119551 z" /><path
       id="use1672"
       d="m 98.666939,65.07067 c 0,-0.852802 -0.08767,-1.370859 -0.350685,-1.880946 -0.350685,-0.70137 -0.996264,-0.876713 -1.43462,-0.876713 -1.004234,0 -1.37086,0.749191 -1.482441,0.972354 -0.286924,0.581818 -0.302864,1.370859 -0.302864,1.785305 0,0.526028 0.02391,1.331009 0.406475,1.968618 0.366625,0.589788 0.956414,0.74122 1.37883,0.74122 0.382565,0 1.067995,-0.119551 1.4665,-0.908592 0.294894,-0.573848 0.318805,-1.283188 0.318805,-1.801246 z m -1.785305,2.486675 c -0.270984,0 -0.820922,-0.127522 -0.988294,-0.964383 -0.08767,-0.454297 -0.08767,-1.203487 -0.08767,-1.617933 0,-0.549938 0,-1.107846 0.08767,-1.546202 0.167372,-0.812951 0.789041,-0.892652 0.988294,-0.892652 0.270984,0 0.820921,0.135492 0.980323,0.860772 0.09564,0.438356 0.09564,1.036114 0.09564,1.578082 0,0.470237 0,1.187547 -0.09564,1.633873 -0.167372,0.836862 -0.71731,0.948443 -0.980323,0.948443 z" /><path
       id="use1674"
       d="m 101.95069,67.347888 h 1.93076 c 0.0837,0 0.23312,0 0.23312,-0.155417 0,-0.155417 -0.14944,-0.155417 -0.23312,-0.155417 h -1.93076 v -1.936737 c 0,-0.08369 0,-0.233126 -0.15542,-0.233126 -0.15542,0 -0.15542,0.149439 -0.15542,0.233126 v 1.936737 h -1.930757 c -0.08369,0 -0.233126,0 -0.233126,0.155417 0,0.155417 0.14944,0.155417 0.233126,0.155417 h 1.930757 v 1.936737 c 0,0.08369 0,0.233126 0.15542,0.233126 0.15542,0 0.15542,-0.149439 0.15542,-0.233126 z" /><path
       id="use1676"
       d="m 107.55472,65.620608 c 0,-0.757161 -0.12752,-1.665753 -0.62167,-2.606227 -0.39053,-0.73325 -1.11581,-1.378829 -1.25927,-1.378829 -0.0797,0 -0.10362,0.05579 -0.10362,0.09564 0,0.03188 0,0.04782 0.0956,0.143462 1.11581,1.060025 1.37085,2.518556 1.37085,3.745953 0,2.287422 -0.94844,3.371357 -1.35491,3.737983 -0.10362,0.103611 -0.11159,0.111581 -0.11159,0.151432 0,0.03985 0.0239,0.09564 0.10362,0.09564 0.12752,0 0.52602,-0.406476 0.58978,-0.478207 1.068,-1.115815 1.29116,-2.550436 1.29116,-3.506849 z" /></g><g
     id="page1-87"
     transform="matrix(0.39863888,0,0,0.39863888,83.612017,34.34471)"><path
       id="use4184"
       d="m 65.020986,61.246328 c 0.08369,-0.203238 0.119552,-0.286924 0.812951,-0.286924 v -0.514073 c -0.346699,0.02391 -0.502117,0.02391 -0.932503,0.02391 -0.490162,0 -0.645579,0 -1.075965,-0.02391 v 0.514073 c 0.107597,0 0.6934,0 0.6934,0.155417 0,0.01196 0,0.02391 -0.04782,0.143462 l -1.255292,3.108343 -1.374845,-3.407222 h 0.681445 v -0.514073 c -0.286924,0.02391 -0.992279,0.02391 -1.315069,0.02391 -0.609713,0 -0.633623,0 -1.231382,-0.02391 v 0.514073 h 0.705355 c 0.03587,0.09564 0.09564,0.251058 0.143462,0.358655 0.03587,0.07173 0.155417,0.358655 0.155417,0.418431 0,0.02391 -0.03587,0.107596 -0.04782,0.143462 l -0.908593,2.259526 -1.291158,-3.180074 h 0.681444 v -0.514073 c -0.274969,0.02391 -1.08792,0.02391 -1.41071,0.02391 -0.382565,0 -0.956413,0 -1.315068,-0.02391 v 0.514073 h 0.705355 l 1.829141,4.554919 c 0.08369,0.215193 0.131506,0.298879 0.39452,0.298879 0.131507,0 0.274969,0 0.37061,-0.239104 l 1.267248,-3.168119 1.267248,3.144209 c 0.107596,0.263014 0.239103,0.263014 0.382565,0.263014 0.263014,0 0.298879,-0.07173 0.382566,-0.286924 z" /><path
       id="use4186"
       d="m 68.780886,69.605664 c 0.06376,0 0.159403,0 0.159403,-0.09564 0,-0.03188 -0.008,-0.03985 -0.111582,-0.143462 -1.091905,-1.028145 -1.362889,-2.510586 -1.362889,-3.745953 0,-2.295392 0.948443,-3.371357 1.354919,-3.737983 0.111581,-0.103611 0.119552,-0.111581 0.119552,-0.151432 0,-0.03985 -0.03188,-0.09564 -0.111582,-0.09564 -0.127522,0 -0.526027,0.406476 -0.589788,0.478207 -1.067995,1.115815 -1.291158,2.550436 -1.291158,3.506849 0,1.785305 0.74919,3.219925 1.833125,3.985056 z" /><path
       id="use4188"
       d="m 71.922712,62.536175 c 0,-0.215193 -0.01594,-0.223164 -0.231133,-0.223164 -0.326775,0.318805 -0.749191,0.510088 -1.506351,0.510088 v 0.263013 c 0.215193,0 0.645579,0 1.107845,-0.215193 v 4.088668 c 0,0.294894 -0.02391,0.390535 -0.781071,0.390535 h -0.278954 v 0.263014 c 0.326775,-0.02391 1.012205,-0.02391 1.37086,-0.02391 0.358655,0 1.052055,0 1.378829,0.02391 v -0.263014 h -0.278954 c -0.75716,0 -0.781071,-0.09564 -0.781071,-0.390535 z" /><path
       id="use4190"
       d="m 78.412431,67.347888 c 0.09564,0 0.245081,0 0.245081,-0.155417 0,-0.155417 -0.14944,-0.155417 -0.245081,-0.155417 h -3.765878 c -0.09564,0 -0.245081,0 -0.245081,0.155417 0,0.155417 0.14944,0.155417 0.245081,0.155417 z" /><path
       id="use4192"
       d="m 81.398957,67.493584 c 0,0.518058 -0.111582,0.972354 -0.605729,1.466501 -0.03188,0.02391 -0.04782,0.03985 -0.04782,0.0797 0,0.06376 0.06376,0.111582 0.119551,0.111582 0.09564,0 0.757161,-0.629639 0.757161,-1.562142 0,-0.510088 -0.191283,-0.860772 -0.541968,-0.860772 -0.278953,0 -0.438356,0.223163 -0.438356,0.438356 0,0.223163 0.151432,0.446326 0.446327,0.446326 0.191282,0 0.310834,-0.111582 0.310834,-0.119551 z" /><path
       id="use4194"
       d="m 84.763487,62.536175 c 0,-0.215193 -0.01594,-0.223164 -0.231133,-0.223164 -0.326775,0.318805 -0.749191,0.510088 -1.506351,0.510088 v 0.263013 c 0.215193,0 0.645579,0 1.107845,-0.215193 v 4.088668 c 0,0.294894 -0.02391,0.390535 -0.781071,0.390535 h -0.278954 v 0.263014 c 0.326775,-0.02391 1.012205,-0.02391 1.37086,-0.02391 0.358655,0 1.052055,0 1.378829,0.02391 v -0.263014 h -0.278954 c -0.75716,0 -0.781071,-0.09564 -0.781071,-0.390535 z" /><path
       id="use4196"
       d="m 89.442005,67.347888 h 1.93076 c 0.08369,0 0.233125,0 0.233125,-0.155417 0,-0.155417 -0.149439,-0.155417 -0.233125,-0.155417 h -1.93076 v -1.936737 c 0,-0.08369 0,-0.233126 -0.155417,-0.233126 -0.155417,0 -0.155417,0.149439 -0.155417,0.233126 v 1.936737 h -1.93076 c -0.08369,0 -0.233126,0 -0.233126,0.155417 0,0.155417 0.14944,0.155417 0.233126,0.155417 h 1.93076 v 1.936737 c 0,0.08369 0,0.233126 0.155417,0.233126 0.155417,0 0.155417,-0.149439 0.155417,-0.233126 z" /><path
       id="use4198"
       d="m 94.073686,67.493584 c 0,0.518058 -0.111582,0.972354 -0.605729,1.466501 -0.03188,0.02391 -0.04782,0.03985 -0.04782,0.0797 0,0.06376 0.06376,0.111582 0.119551,0.111582 0.09564,0 0.757161,-0.629639 0.757161,-1.562142 0,-0.510088 -0.191283,-0.860772 -0.541968,-0.860772 -0.278953,0 -0.438356,0.223163 -0.438356,0.438356 0,0.223163 0.151432,0.446326 0.446327,0.446326 0.191282,0 0.310834,-0.111582 0.310834,-0.119551 z" /><path
       id="use4200"
       d="m 97.438215,62.536175 c 0,-0.215193 -0.01594,-0.223164 -0.231133,-0.223164 -0.326775,0.318805 -0.749191,0.510088 -1.506351,0.510088 v 0.263013 c 0.215193,0 0.645579,0 1.107845,-0.215193 v 4.088668 c 0,0.294894 -0.02391,0.390535 -0.781071,0.390535 h -0.278954 v 0.263014 c 0.326775,-0.02391 1.012205,-0.02391 1.37086,-0.02391 0.358655,0 1.052055,0 1.378829,0.02391 v -0.263014 h -0.278954 c -0.75716,0 -0.781071,-0.09564 -0.781071,-0.390535 z" /><path
       id="use4202"
       d="m 103.92794,67.347888 c 0.0956,0 0.24508,0 0.24508,-0.155417 0,-0.155417 -0.14944,-0.155417 -0.24508,-0.155417 h -3.76588 c -0.0956,0 -0.245077,0 -0.245077,0.155417 0,0.155417 0.149437,0.155417 0.245077,0.155417 z" /><path
       id="use4204"
       d="m 107.88682,65.620608 c 0,-0.757161 -0.12752,-1.665753 -0.62167,-2.606227 -0.39053,-0.73325 -1.11581,-1.378829 -1.25927,-1.378829 -0.0797,0 -0.10362,0.05579 -0.10362,0.09564 0,0.03188 0,0.04782 0.0957,0.143462 1.11581,1.060025 1.37085,2.518556 1.37085,3.745953 0,2.287422 -0.94844,3.371357 -1.35491,3.737983 -0.10362,0.103611 -0.11159,0.111581 -0.11159,0.151432 0,0.03985 0.0239,0.09564 0.10362,0.09564 0.12752,0 0.52602,-0.406476 0.58978,-0.478207 1.068,-1.115815 1.29116,-2.550436 1.29116,-3.506849 z" /></g><g
     id="g1937"
     transform="matrix(0.2352294,0,0,-0.2352294,-4.7869301,187.60166)"><g
       id="g991"><g
         id="g993"
         clip-path="url(#clipPath997)"><path
           d="M 100.3,741.7 H 57.1 v 28.8 h 86.4 v -28.8 z"
           style="fill:#ff6666;fill-opacity:1;fill-rule:evenodd;stroke:none"
           id="path999" /><g
           id="g1001"><path
             d="M 100.3,741.7 H 57.1 v 28.8 h 86.4 v -28.8 z"
             style="fill:none;stroke:#000000;stroke-width:1.4999;stroke-linecap:butt;stroke-linejoin:round;stroke-miterlimit:10;stroke-dasharray:none;stroke-opacity:1"
             id="path1003" /></g></g></g><g
       id="g1005"><g
         id="g1007" /><g
         id="g1019"><g
           clip-path="url(#clipPath1011)"
           opacity="0.1"
           id="g1017"><g
             id="g1015"><path
               d="M 85.9,770.5 V 741.7"
               style="fill:none;stroke:#000000;stroke-width:1.4999;stroke-linecap:butt;stroke-linejoin:round;stroke-miterlimit:10;stroke-dasharray:none;stroke-opacity:1"
               id="path1013" /></g></g></g></g><g
       id="g1021"><g
         id="g1023" /><g
         id="g1035"><g
           clip-path="url(#clipPath1027)"
           opacity="0.1"
           id="g1033"><g
             id="g1031"><path
               d="M 114.7,770.5 V 741.7"
               style="fill:none;stroke:#000000;stroke-width:1.4999;stroke-linecap:butt;stroke-linejoin:round;stroke-miterlimit:10;stroke-dasharray:none;stroke-opacity:1"
               id="path1029" /></g></g></g></g><path
       d="m 172.3,741.7 h -14.4 v 28.8 h 28.8 v -28.8 z"
       style="fill:#ff6666;fill-opacity:1;fill-rule:evenodd;stroke:none"
       id="path1037" /><g
       id="g1039"><path
         d="m 172.3,741.7 h -14.4 v 28.8 h 28.8 v -28.8 z"
         style="fill:none;stroke:#000000;stroke-width:1.4999;stroke-linecap:butt;stroke-linejoin:round;stroke-miterlimit:10;stroke-dasharray:none;stroke-opacity:1"
         id="path1041" /></g><path
       d="m 467.5,741.7 h -14.4 v 28.8 h 28.8 v -28.8 z"
       style="fill:#3399ff;fill-opacity:1;fill-rule:evenodd;stroke:none"
       id="path1043" /><g
       id="g1045"><path
         d="m 467.5,741.7 h -14.4 v 28.8 h 28.8 v -28.8 z"
         style="fill:none;stroke:#000000;stroke-width:1.4999;stroke-linecap:butt;stroke-linejoin:round;stroke-miterlimit:10;stroke-dasharray:none;stroke-opacity:1"
         id="path1047" /></g><path
       d="m 532.3,741.7 h -43.2 v 28.8 h 86.4 v -28.8 z"
       style="fill:#3399ff;fill-opacity:1;fill-rule:evenodd;stroke:none"
       id="path1049" /><g
       id="g1051"><path
         d="m 532.3,741.7 h -43.2 v 28.8 h 86.4 v -28.8 z"
         style="fill:none;stroke:#000000;stroke-width:1.4999;stroke-linecap:butt;stroke-linejoin:round;stroke-miterlimit:10;stroke-dasharray:none;stroke-opacity:1"
         id="path1053" /></g><g
       id="g1055"><g
         id="g1057" /><g
         id="g1069"><g
           clip-path="url(#clipPath1061)"
           opacity="0.1"
           id="g1067"><g
             id="g1065"><path
               d="M 517.9,770.5 V 741.7"
               style="fill:none;stroke:#000000;stroke-width:1.4999;stroke-linecap:butt;stroke-linejoin:round;stroke-miterlimit:10;stroke-dasharray:none;stroke-opacity:1"
               id="path1063" /></g></g></g></g><g
       id="g1071"><g
         id="g1073" /><g
         id="g1085"><g
           clip-path="url(#clipPath1077)"
           opacity="0.1"
           id="g1083"><g
             id="g1081"><path
               d="M 546.7,770.5 V 741.7"
               style="fill:none;stroke:#000000;stroke-width:1.4999;stroke-linecap:butt;stroke-linejoin:round;stroke-miterlimit:10;stroke-dasharray:none;stroke-opacity:1"
               id="path1079" /></g></g></g></g><path
       d="m 251.5,526.2 h 43.2 v -28.8 h -86.4 v 28.8 z"
       style="fill:#cc66ff;fill-opacity:1;fill-rule:evenodd;stroke:none"
       id="path1087" /><g
       id="g1089"><path
         d="m 251.5,526.2 h 43.2 v -28.8 h -86.4 v 28.8 z"
         style="fill:none;stroke:#000000;stroke-width:1.4999;stroke-linecap:butt;stroke-linejoin:round;stroke-miterlimit:10;stroke-dasharray:none;stroke-opacity:1"
         id="path1091" /></g><g
       id="g1093"><g
         id="g1095" /><g
         id="g1107"><g
           clip-path="url(#clipPath1099)"
           opacity="0.1"
           id="g1105"><g
             id="g1103"><path
               d="m 237.1,497.4 v 28.8"
               style="fill:none;stroke:#000000;stroke-width:1.4999;stroke-linecap:butt;stroke-linejoin:round;stroke-miterlimit:10;stroke-dasharray:none;stroke-opacity:1"
               id="path1101" /></g></g></g></g><g
       id="g1109"><g
         id="g1111" /><g
         id="g1123"><g
           clip-path="url(#clipPath1115)"
           opacity="0.1"
           id="g1121"><g
             id="g1119"><path
               d="m 265.9,497.4 v 28.8"
               style="fill:none;stroke:#000000;stroke-width:1.4999;stroke-linecap:butt;stroke-linejoin:round;stroke-miterlimit:10;stroke-dasharray:none;stroke-opacity:1"
               id="path1117" /></g></g></g></g><path
       d="m 323.5,526.2 h 14.4 v -28.8 h -28.8 v 28.8 z"
       style="fill:#cc66ff;fill-opacity:1;fill-rule:evenodd;stroke:none"
       id="path1125" /><g
       id="g1127"><path
         d="m 323.5,526.2 h 14.4 v -28.8 h -28.8 v 28.8 z"
         style="fill:none;stroke:#000000;stroke-width:1.4999;stroke-linecap:butt;stroke-linejoin:round;stroke-miterlimit:10;stroke-dasharray:none;stroke-opacity:1"
         id="path1129" /></g><path
       d="m 25.1,631.8 0.4,0.7 h -0.8 z"
       style="fill:#000000;fill-opacity:1;fill-rule:evenodd;stroke:none"
       id="path1131" /><g
       id="g1133"><path
         d="m 25.1,631.8 0.4,0.7 h -0.8 z"
         style="fill:none;stroke:#ff3300;stroke-width:1.4999;stroke-linecap:butt;stroke-linejoin:round;stroke-miterlimit:10;stroke-dasharray:none;stroke-opacity:1"
         id="path1135" /></g><g
       id="g1137"><path
         d="M 24.7,741.7 24.9,632.5"
         style="fill:none;stroke:#ff3300;stroke-width:1.4999;stroke-linecap:butt;stroke-linejoin:round;stroke-miterlimit:10;stroke-dasharray:none;stroke-opacity:1"
         id="path1139" /></g><g
       id="g1141"><path
         d="M 25.1,631.8 175.9,526.2"
         style="fill:none;stroke:#ff3300;stroke-width:1.4999;stroke-linecap:butt;stroke-linejoin:round;stroke-miterlimit:10;stroke-dasharray:none;stroke-opacity:1"
         id="path1143" /></g><path
       d="m 53.8,631.8 0.3,0.7 h -0.7 z"
       style="fill:#000000;fill-opacity:1;fill-rule:evenodd;stroke:none"
       id="path1145" /><g
       id="g1147"><path
         d="m 53.8,631.8 0.3,0.7 h -0.7 z"
         style="fill:none;stroke:#000000;stroke-width:1.4999;stroke-linecap:butt;stroke-linejoin:round;stroke-miterlimit:10;stroke-dasharray:none;stroke-opacity:1"
         id="path1149" /></g><path
       d="m 82.5,631.8 0.3,0.7 h -0.7 z"
       style="fill:#000000;fill-opacity:1;fill-rule:evenodd;stroke:none"
       id="path1151" /><g
       id="g1153"><path
         d="m 82.5,631.8 0.3,0.7 h -0.7 z"
         style="fill:none;stroke:#000000;stroke-width:1.4999;stroke-linecap:butt;stroke-linejoin:round;stroke-miterlimit:10;stroke-dasharray:none;stroke-opacity:1"
         id="path1155" /></g><path
       d="m 111.1,631.8 0.4,0.7 h -0.7 z"
       style="fill:#000000;fill-opacity:1;fill-rule:evenodd;stroke:none"
       id="path1157" /><g
       id="g1159"><path
         d="m 111.1,631.8 0.4,0.7 h -0.7 z"
         style="fill:none;stroke:#000000;stroke-width:1.4999;stroke-linecap:butt;stroke-linejoin:round;stroke-miterlimit:10;stroke-dasharray:none;stroke-opacity:1"
         id="path1161" /></g><path
       d="m 139.8,631.8 0.4,0.7 h -0.7 z"
       style="fill:#000000;fill-opacity:1;fill-rule:evenodd;stroke:none"
       id="path1163" /><g
       id="g1165"><path
         d="m 139.8,631.8 0.4,0.7 h -0.7 z"
         style="fill:none;stroke:#000000;stroke-width:1.4999;stroke-linecap:butt;stroke-linejoin:round;stroke-miterlimit:10;stroke-dasharray:none;stroke-opacity:1"
         id="path1167" /></g><path
       d="m 168.5,631.8 0.4,0.7 h -0.7 z"
       style="fill:#000000;fill-opacity:1;fill-rule:evenodd;stroke:none"
       id="path1169" /><g
       id="g1171"><path
         d="m 168.5,631.8 0.4,0.7 h -0.7 z"
         style="fill:none;stroke:#000000;stroke-width:1.4999;stroke-linecap:butt;stroke-linejoin:round;stroke-miterlimit:10;stroke-dasharray:none;stroke-opacity:1"
         id="path1173" /></g><path
       d="m 197.2,631.8 0.4,0.7 h -0.8 z"
       style="fill:#000000;fill-opacity:1;fill-rule:evenodd;stroke:none"
       id="path1175" /><g
       id="g1177"><path
         d="m 197.2,631.8 0.4,0.7 h -0.8 z"
         style="fill:none;stroke:#000000;stroke-width:1.4999;stroke-linecap:butt;stroke-linejoin:round;stroke-miterlimit:10;stroke-dasharray:none;stroke-opacity:1"
         id="path1179" /></g><path
       d="m 225.9,631.8 0.4,0.7 h -0.8 z"
       style="fill:#000000;fill-opacity:1;fill-rule:evenodd;stroke:none"
       id="path1181" /><g
       id="g1183"><path
         d="m 225.9,631.8 0.4,0.7 h -0.8 z"
         style="fill:none;stroke:#000000;stroke-width:1.4999;stroke-linecap:butt;stroke-linejoin:round;stroke-miterlimit:10;stroke-dasharray:none;stroke-opacity:1"
         id="path1185" /></g><path
       d="m 254.6,631.8 0.3,0.7 h -0.7 z"
       style="fill:#000000;fill-opacity:1;fill-rule:evenodd;stroke:none"
       id="path1187" /><g
       id="g1189"><path
         d="m 254.6,631.8 0.3,0.7 h -0.7 z"
         style="fill:none;stroke:#000000;stroke-width:1.4999;stroke-linecap:butt;stroke-linejoin:round;stroke-miterlimit:10;stroke-dasharray:none;stroke-opacity:1"
         id="path1191" /></g><path
       d="m 283.3,631.8 0.3,0.7 h -0.7 z"
       style="fill:#000000;fill-opacity:1;fill-rule:evenodd;stroke:none"
       id="path1193" /><g
       id="g1195"><path
         d="m 283.3,631.8 0.3,0.7 h -0.7 z"
         style="fill:none;stroke:#000000;stroke-width:1.4999;stroke-linecap:butt;stroke-linejoin:round;stroke-miterlimit:10;stroke-dasharray:none;stroke-opacity:1"
         id="path1197" /></g><path
       d="m 312,631.8 0.3,0.7 h -0.7 z"
       style="fill:#000000;fill-opacity:1;fill-rule:evenodd;stroke:none"
       id="path1199" /><g
       id="g1201"><path
         d="m 312,631.8 0.3,0.7 h -0.7 z"
         style="fill:none;stroke:#000000;stroke-width:1.4999;stroke-linecap:butt;stroke-linejoin:round;stroke-miterlimit:10;stroke-dasharray:none;stroke-opacity:1"
         id="path1203" /></g><path
       d="m 340.7,631.8 0.3,0.7 h -0.7 z"
       style="fill:#000000;fill-opacity:1;fill-rule:evenodd;stroke:none"
       id="path1205" /><g
       id="g1207"><path
         d="m 340.7,631.8 0.3,0.7 h -0.7 z"
         style="fill:none;stroke:#000000;stroke-width:1.4999;stroke-linecap:butt;stroke-linejoin:round;stroke-miterlimit:10;stroke-dasharray:none;stroke-opacity:1"
         id="path1209" /></g><path
       d="m 369.4,631.8 0.3,0.7 H 369 Z"
       style="fill:#000000;fill-opacity:1;fill-rule:evenodd;stroke:none"
       id="path1211" /><g
       id="g1213"><path
         d="m 369.4,631.8 0.3,0.7 H 369 Z"
         style="fill:none;stroke:#000000;stroke-width:1.4999;stroke-linecap:butt;stroke-linejoin:round;stroke-miterlimit:10;stroke-dasharray:none;stroke-opacity:1"
         id="path1215" /></g><path
       d="m 398,631.8 0.4,0.7 h -0.7 z"
       style="fill:#000000;fill-opacity:1;fill-rule:evenodd;stroke:none"
       id="path1217" /><g
       id="g1219"><path
         d="m 398,631.8 0.4,0.7 h -0.7 z"
         style="fill:none;stroke:#000000;stroke-width:1.4999;stroke-linecap:butt;stroke-linejoin:round;stroke-miterlimit:10;stroke-dasharray:none;stroke-opacity:1"
         id="path1221" /></g><path
       d="m 426.7,631.8 0.4,0.7 h -0.7 z"
       style="fill:#000000;fill-opacity:1;fill-rule:evenodd;stroke:none"
       id="path1223" /><g
       id="g1225"><path
         d="m 426.7,631.8 0.4,0.7 h -0.7 z"
         style="fill:none;stroke:#000000;stroke-width:1.4999;stroke-linecap:butt;stroke-linejoin:round;stroke-miterlimit:10;stroke-dasharray:none;stroke-opacity:1"
         id="path1227" /></g><path
       d="m 455.4,631.8 0.4,0.7 H 455 Z"
       style="fill:#000000;fill-opacity:1;fill-rule:evenodd;stroke:none"
       id="path1229" /><g
       id="g1231"><path
         d="m 455.4,631.8 0.4,0.7 H 455 Z"
         style="fill:none;stroke:#000000;stroke-width:1.4999;stroke-linecap:butt;stroke-linejoin:round;stroke-miterlimit:10;stroke-dasharray:none;stroke-opacity:1"
         id="path1233" /></g><path
       d="m 484.1,631.8 0.4,0.7 h -0.8 z"
       style="fill:#000000;fill-opacity:1;fill-rule:evenodd;stroke:none"
       id="path1235" /><g
       id="g1237"><path
         d="m 484.1,631.8 0.4,0.7 h -0.8 z"
         style="fill:none;stroke:#00cc00;stroke-width:1.4999;stroke-linecap:butt;stroke-linejoin:round;stroke-miterlimit:10;stroke-dasharray:none;stroke-opacity:1"
         id="path1239" /></g><path
       d="m 512.8,631.8 0.4,0.7 h -0.8 z"
       style="fill:#000000;fill-opacity:1;fill-rule:evenodd;stroke:none"
       id="path1241" /><g
       id="g1243"><path
         d="m 512.8,631.8 0.4,0.7 h -0.8 z"
         style="fill:none;stroke:#000000;stroke-width:1.4999;stroke-linecap:butt;stroke-linejoin:round;stroke-miterlimit:10;stroke-dasharray:none;stroke-opacity:1"
         id="path1245" /></g><path
       d="m 541.5,631.8 0.3,0.7 h -0.7 z"
       style="fill:#000000;fill-opacity:1;fill-rule:evenodd;stroke:none"
       id="path1247" /><g
       id="g1249"><path
         d="m 541.5,631.8 0.3,0.7 h -0.7 z"
         style="fill:none;stroke:#000000;stroke-width:1.4999;stroke-linecap:butt;stroke-linejoin:round;stroke-miterlimit:10;stroke-dasharray:none;stroke-opacity:1"
         id="path1251" /></g><path
       d="m 568.6,631.8 0.4,0.7 h -0.8 z"
       style="fill:#000000;fill-opacity:1;fill-rule:evenodd;stroke:none"
       id="path1253" /><g
       id="g1255"><path
         d="m 568.6,631.8 0.4,0.7 h -0.8 z"
         style="fill:none;stroke:#000000;stroke-width:1.4999;stroke-linecap:butt;stroke-linejoin:round;stroke-miterlimit:10;stroke-dasharray:none;stroke-opacity:1"
         id="path1257" /></g><g
       id="g1259"><path
         d="m 568.3,741.7 0.4,-109.2"
         style="fill:none;stroke:#000000;stroke-width:1.4999;stroke-linecap:butt;stroke-linejoin:round;stroke-miterlimit:10;stroke-dasharray:none;stroke-opacity:1"
         id="path1261" /></g><g
       id="g1263"><path
         d="M 31.9,741.7 53.6,632.5"
         style="fill:none;stroke:#000000;stroke-width:1.4999;stroke-linecap:butt;stroke-linejoin:round;stroke-miterlimit:10;stroke-dasharray:none;stroke-opacity:1"
         id="path1265" /></g><g
       id="g1267"><path
         d="M 456.7,741.7 53.9,632.5"
         style="fill:none;stroke:#000000;stroke-width:1.4999;stroke-linecap:butt;stroke-linejoin:round;stroke-miterlimit:10;stroke-dasharray:none;stroke-opacity:1"
         id="path1269" /></g><g
       id="g1271"><path
         d="M 53.8,631.8 312.7,526.2"
         style="fill:none;stroke:#000000;stroke-width:1.4999;stroke-linecap:butt;stroke-linejoin:round;stroke-miterlimit:10;stroke-dasharray:none;stroke-opacity:1"
         id="path1273" /></g><g
       id="g1275"><path
         d="M 39.1,741.7 82.3,632.5"
         style="fill:none;stroke:#000000;stroke-width:1.4999;stroke-linecap:butt;stroke-linejoin:round;stroke-miterlimit:10;stroke-dasharray:none;stroke-opacity:1"
         id="path1277" /></g><g
       id="g1279"><path
         d="M 359.6,741.7 82.6,632.5"
         style="fill:none;stroke:#000000;stroke-width:1.4999;stroke-linecap:butt;stroke-linejoin:round;stroke-miterlimit:10;stroke-dasharray:none;stroke-opacity:1"
         id="path1281" /></g><g
       id="g1283"><path
         d="M 82.5,631.8 215.6,526.2"
         style="fill:none;stroke:#000000;stroke-width:1.4999;stroke-linecap:butt;stroke-linejoin:round;stroke-miterlimit:10;stroke-dasharray:none;stroke-opacity:1"
         id="path1285" /></g><g
       id="g1287"><path
         d="M 46.3,741.7 111,632.5"
         style="fill:none;stroke:#000000;stroke-width:1.4999;stroke-linecap:butt;stroke-linejoin:round;stroke-miterlimit:10;stroke-dasharray:none;stroke-opacity:1"
         id="path1289" /></g><g
       id="g1291"><path
         d="M 496.4,741.7 111.3,632.5"
         style="fill:none;stroke:#000000;stroke-width:1.4999;stroke-linecap:butt;stroke-linejoin:round;stroke-miterlimit:10;stroke-dasharray:none;stroke-opacity:1"
         id="path1293" /></g><g
       id="g1295"><path
         d="M 111.2,631.8 352.4,526.2"
         style="fill:none;stroke:#000000;stroke-width:1.4999;stroke-linecap:butt;stroke-linejoin:round;stroke-miterlimit:10;stroke-dasharray:none;stroke-opacity:1"
         id="path1297" /></g><g
       id="g1299"><path
         d="M 161.5,741.7 139.7,632.5"
         style="fill:none;stroke:#000000;stroke-width:1.4999;stroke-linecap:butt;stroke-linejoin:round;stroke-miterlimit:10;stroke-dasharray:none;stroke-opacity:1"
         id="path1301" /></g><g
       id="g1303"><path
         d="M 327.1,741.7 140,632.5"
         style="fill:none;stroke:#000000;stroke-width:1.4999;stroke-linecap:butt;stroke-linejoin:round;stroke-miterlimit:10;stroke-dasharray:none;stroke-opacity:1"
         id="path1305" /></g><g
       id="g1307"><path
         d="m 139.9,631.8 180,-105.6"
         style="fill:none;stroke:#000000;stroke-width:1.4999;stroke-linecap:butt;stroke-linejoin:round;stroke-miterlimit:10;stroke-dasharray:none;stroke-opacity:1"
         id="path1309" /></g><g
       id="g1311"><path
         d="M 168.7,741.7 168.4,632.5"
         style="fill:none;stroke:#000000;stroke-width:1.4999;stroke-linecap:butt;stroke-linejoin:round;stroke-miterlimit:10;stroke-dasharray:none;stroke-opacity:1"
         id="path1313" /></g><g
       id="g1315"><path
         d="M 168.7,632.5 463.9,741.7"
         style="fill:none;stroke:#000000;stroke-width:1.4999;stroke-linecap:butt;stroke-linejoin:round;stroke-miterlimit:10;stroke-dasharray:none;stroke-opacity:1"
         id="path1317" /></g><g
       id="g1319"><path
         d="M 168.6,631.8 183.1,526.2"
         style="fill:none;stroke:#000000;stroke-width:1.4999;stroke-linecap:butt;stroke-linejoin:round;stroke-miterlimit:10;stroke-dasharray:none;stroke-opacity:1"
         id="path1321" /></g><g
       id="g1323"><path
         d="M 175.9,741.7 197.1,632.5"
         style="fill:none;stroke:#000000;stroke-width:1.4999;stroke-linecap:butt;stroke-linejoin:round;stroke-miterlimit:10;stroke-dasharray:none;stroke-opacity:1"
         id="path1325" /></g><g
       id="g1327"><path
         d="M 373.9,741.7 197.3,632.5"
         style="fill:none;stroke:#000000;stroke-width:1.4999;stroke-linecap:butt;stroke-linejoin:round;stroke-miterlimit:10;stroke-dasharray:none;stroke-opacity:1"
         id="path1329" /></g><g
       id="g1331"><path
         d="M 197.3,631.8 366.7,526.2"
         style="fill:none;stroke:#000000;stroke-width:1.4999;stroke-linecap:butt;stroke-linejoin:round;stroke-miterlimit:10;stroke-dasharray:none;stroke-opacity:1"
         id="path1333" /></g><g
       id="g1335"><path
         d="M 183.1,741.7 225.8,632.5"
         style="fill:none;stroke:#000000;stroke-width:1.4999;stroke-linecap:butt;stroke-linejoin:round;stroke-miterlimit:10;stroke-dasharray:none;stroke-opacity:1"
         id="path1337" /></g><g
       id="g1339"><path
         d="M 510.7,741.7 226,632.5"
         style="fill:none;stroke:#000000;stroke-width:1.4999;stroke-linecap:butt;stroke-linejoin:round;stroke-miterlimit:10;stroke-dasharray:none;stroke-opacity:1"
         id="path1341" /></g><g
       id="g1343"><path
         d="m 225.9,631.8 4,-105.6"
         style="fill:none;stroke:#000000;stroke-width:1.4999;stroke-linecap:butt;stroke-linejoin:round;stroke-miterlimit:10;stroke-dasharray:none;stroke-opacity:1"
         id="path1345" /></g><g
       id="g1347"><path
         d="m 64.4,741.7 190,-109.2"
         style="fill:none;stroke:#000000;stroke-width:1.4999;stroke-linecap:butt;stroke-linejoin:round;stroke-miterlimit:10;stroke-dasharray:none;stroke-opacity:1"
         id="path1349" /></g><g
       id="g1351"><path
         d="M 334.3,741.7 254.7,632.5"
         style="fill:none;stroke:#000000;stroke-width:1.4999;stroke-linecap:butt;stroke-linejoin:round;stroke-miterlimit:10;stroke-dasharray:none;stroke-opacity:1"
         id="path1353" /></g><g
       id="g1355"><path
         d="M 254.6,631.8 244.4,526.2"
         style="fill:none;stroke:#000000;stroke-width:1.4999;stroke-linecap:butt;stroke-linejoin:round;stroke-miterlimit:10;stroke-dasharray:none;stroke-opacity:1"
         id="path1357" /></g><g
       id="g1359"><path
         d="M 78.7,741.7 283.1,632.5"
         style="fill:none;stroke:#000000;stroke-width:1.4999;stroke-linecap:butt;stroke-linejoin:round;stroke-miterlimit:10;stroke-dasharray:none;stroke-opacity:1"
         id="path1361" /></g><g
       id="g1363"><path
         d="M 471.1,741.7 283.4,632.5"
         style="fill:none;stroke:#000000;stroke-width:1.4999;stroke-linecap:butt;stroke-linejoin:round;stroke-miterlimit:10;stroke-dasharray:none;stroke-opacity:1"
         id="path1365" /></g><g
       id="g1367"><path
         d="M 283.3,631.8 381.2,526.2"
         style="fill:none;stroke:#000000;stroke-width:1.4999;stroke-linecap:butt;stroke-linejoin:round;stroke-miterlimit:10;stroke-dasharray:none;stroke-opacity:1"
         id="path1369" /></g><g
       id="g1371"><path
         d="M 93.2,741.7 311.8,632.5"
         style="fill:none;stroke:#000000;stroke-width:1.4999;stroke-linecap:butt;stroke-linejoin:round;stroke-miterlimit:10;stroke-dasharray:none;stroke-opacity:1"
         id="path1373" /></g><g
       id="g1375"><path
         d="M 388.4,741.7 312.1,632.5"
         style="fill:none;stroke:#000000;stroke-width:1.4999;stroke-linecap:butt;stroke-linejoin:round;stroke-miterlimit:10;stroke-dasharray:none;stroke-opacity:1"
         id="path1377" /></g><g
       id="g1379"><path
         d="M 312,631.8 258.7,526.2"
         style="fill:none;stroke:#000000;stroke-width:1.4999;stroke-linecap:butt;stroke-linejoin:round;stroke-miterlimit:10;stroke-dasharray:none;stroke-opacity:1"
         id="path1381" /></g><g
       id="g1383"><path
         d="m 107.5,741.7 233,-109.2"
         style="fill:none;stroke:#000000;stroke-width:1.4999;stroke-linecap:butt;stroke-linejoin:round;stroke-miterlimit:10;stroke-dasharray:none;stroke-opacity:1"
         id="path1385" /></g><g
       id="g1387"><path
         d="M 525.2,741.7 340.8,632.5"
         style="fill:none;stroke:#000000;stroke-width:1.4999;stroke-linecap:butt;stroke-linejoin:round;stroke-miterlimit:10;stroke-dasharray:none;stroke-opacity:1"
         id="path1389" /></g><g
       id="g1391"><path
         d="M 340.7,631.8 395.5,526.2"
         style="fill:none;stroke:#000000;stroke-width:1.4999;stroke-linecap:butt;stroke-linejoin:round;stroke-miterlimit:10;stroke-dasharray:none;stroke-opacity:1"
         id="path1393" /></g><g
       id="g1395"><path
         d="M 121.9,741.7 369.2,632.5"
         style="fill:none;stroke:#000000;stroke-width:1.4999;stroke-linecap:butt;stroke-linejoin:round;stroke-miterlimit:10;stroke-dasharray:none;stroke-opacity:1"
         id="path1397" /></g><g
       id="g1399"><path
         d="M 402.7,741.7 369.5,632.5"
         style="fill:none;stroke:#000000;stroke-width:1.4999;stroke-linecap:butt;stroke-linejoin:round;stroke-miterlimit:10;stroke-dasharray:none;stroke-opacity:1"
         id="path1401" /></g><g
       id="g1403"><path
         d="M 369.4,631.8 190.3,526.2"
         style="fill:none;stroke:#000000;stroke-width:1.4999;stroke-linecap:butt;stroke-linejoin:round;stroke-miterlimit:10;stroke-dasharray:none;stroke-opacity:1"
         id="path1405" /></g><g
       id="g1407"><path
         d="M 136.3,741.7 397.9,632.5"
         style="fill:none;stroke:#000000;stroke-width:1.4999;stroke-linecap:butt;stroke-linejoin:round;stroke-miterlimit:10;stroke-dasharray:none;stroke-opacity:1"
         id="path1409" /></g><g
       id="g1411"><path
         d="M 539.5,741.7 398.2,632.5"
         style="fill:none;stroke:#000000;stroke-width:1.4999;stroke-linecap:butt;stroke-linejoin:round;stroke-miterlimit:10;stroke-dasharray:none;stroke-opacity:1"
         id="path1413" /></g><g
       id="g1415"><path
         d="m 398.1,631.8 -71,-105.6"
         style="fill:none;stroke:#000000;stroke-width:1.4999;stroke-linecap:butt;stroke-linejoin:round;stroke-miterlimit:10;stroke-dasharray:none;stroke-opacity:1"
         id="path1417" /></g><g
       id="g1419"><path
         d="M 201.2,741.7 426.6,632.5"
         style="fill:none;stroke:#000000;stroke-width:1.4999;stroke-linecap:butt;stroke-linejoin:round;stroke-miterlimit:10;stroke-dasharray:none;stroke-opacity:1"
         id="path1421" /></g><g
       id="g1423"><path
         d="M 341.5,741.7 426.9,632.5"
         style="fill:none;stroke:#000000;stroke-width:1.4999;stroke-linecap:butt;stroke-linejoin:round;stroke-miterlimit:10;stroke-dasharray:none;stroke-opacity:1"
         id="path1425" /></g><g
       id="g1427"><path
         d="M 426.8,631.8 409.9,526.2"
         style="fill:none;stroke:#000000;stroke-width:1.4999;stroke-linecap:butt;stroke-linejoin:round;stroke-miterlimit:10;stroke-dasharray:none;stroke-opacity:1"
         id="path1429" /></g><g
       id="g1431"><path
         d="M 215.5,741.7 455.3,632.5"
         style="fill:none;stroke:#000000;stroke-width:1.4999;stroke-linecap:butt;stroke-linejoin:round;stroke-miterlimit:10;stroke-dasharray:none;stroke-opacity:1"
         id="path1433" /></g><g
       id="g1435"><path
         d="M 478.3,741.7 455.6,632.5"
         style="fill:none;stroke:#000000;stroke-width:1.4999;stroke-linecap:butt;stroke-linejoin:round;stroke-miterlimit:10;stroke-dasharray:none;stroke-opacity:1"
         id="path1437" /></g><g
       id="g1439"><path
         d="M 455.5,631.8 273.1,526.2"
         style="fill:none;stroke:#000000;stroke-width:1.4999;stroke-linecap:butt;stroke-linejoin:round;stroke-miterlimit:10;stroke-dasharray:none;stroke-opacity:1"
         id="path1441" /></g><g
       id="g1443"><path
         d="M 244.3,741.7 512.6,632.5"
         style="fill:none;stroke:#000000;stroke-width:1.4999;stroke-linecap:butt;stroke-linejoin:round;stroke-miterlimit:10;stroke-dasharray:none;stroke-opacity:1"
         id="path1445" /></g><g
       id="g1447"><path
         d="m 553.9,741.7 -41,-109.2"
         style="fill:none;stroke:#000000;stroke-width:1.4999;stroke-linecap:butt;stroke-linejoin:round;stroke-miterlimit:10;stroke-dasharray:none;stroke-opacity:1"
         id="path1449" /></g><g
       id="g1451"><path
         d="M 287.5,526.2 512.8,631.8"
         style="fill:none;stroke:#000000;stroke-width:1.4999;stroke-linecap:butt;stroke-linejoin:round;stroke-miterlimit:10;stroke-dasharray:none;stroke-opacity:1"
         id="path1453" /></g><g
       id="g1455"><path
         d="M 258.7,741.7 541.3,632.5"
         style="fill:none;stroke:#000000;stroke-width:1.4999;stroke-linecap:butt;stroke-linejoin:round;stroke-miterlimit:10;stroke-dasharray:none;stroke-opacity:1"
         id="path1457" /></g><g
       id="g1459"><path
         d="M 431.5,741.7 541.6,632.5"
         style="fill:none;stroke:#000000;stroke-width:1.4999;stroke-linecap:butt;stroke-linejoin:round;stroke-miterlimit:10;stroke-dasharray:none;stroke-opacity:1"
         id="path1461" /></g><g
       id="g1463"><path
         d="M 541.5,631.8 334.3,526.2"
         style="fill:none;stroke:#000000;stroke-width:1.4999;stroke-linecap:butt;stroke-linejoin:round;stroke-miterlimit:10;stroke-dasharray:none;stroke-opacity:1"
         id="path1465" /></g><g
       id="g1467"><path
         d="M 273.1,741.7 568.5,632.5"
         style="fill:none;stroke:#000000;stroke-width:1.4999;stroke-linecap:butt;stroke-linejoin:round;stroke-miterlimit:10;stroke-dasharray:none;stroke-opacity:1"
         id="path1469" /></g><g
       id="g1471"><path
         d="m 568.3,741.7 0.4,-109.2"
         style="fill:none;stroke:#000000;stroke-width:1.4999;stroke-linecap:butt;stroke-linejoin:round;stroke-miterlimit:10;stroke-dasharray:none;stroke-opacity:1"
         id="path1473" /></g><g
       id="g1475"><path
         d="M 568.7,631.8 197.5,526.2"
         style="fill:none;stroke:#000000;stroke-width:1.4999;stroke-linecap:butt;stroke-linejoin:round;stroke-miterlimit:10;stroke-dasharray:none;stroke-opacity:1"
         id="path1477" /></g><g
       id="g1479"><path
         d="m 96.7,550.9 6.6,13"
         style="fill:none;stroke:#ff3300;stroke-width:2.9998;stroke-linecap:butt;stroke-linejoin:round;stroke-miterlimit:10;stroke-dasharray:none;stroke-opacity:1"
         id="path1481" /></g><path
       d="m 107.5,572.5 -10.4,-6.4 11.6,-5.8 z"
       style="fill:#ff3300;fill-opacity:1;fill-rule:evenodd;stroke:none"
       id="path1483" /><g
       id="g1485"><path
         d="m 467.5,550.9 -13,6.5"
         style="fill:none;stroke:#00cc00;stroke-width:2.9998;stroke-linecap:butt;stroke-linejoin:round;stroke-miterlimit:10;stroke-dasharray:none;stroke-opacity:1"
         id="path1487" /></g><path
       d="m 445.9,561.6 6.4,-10.4 5.8,11.6 z"
       style="fill:#00cc00;fill-opacity:1;fill-rule:evenodd;stroke:none"
       id="path1489" /><g
       id="g1491"><path
         d="M 319.9,741.7 25.2,632.5"
         style="fill:none;stroke:#ff3300;stroke-width:1.4999;stroke-linecap:butt;stroke-linejoin:round;stroke-miterlimit:10;stroke-dasharray:none;stroke-opacity:1"
         id="path1493" /></g><path
       d="m 330.7,741.7 h -14.4 v 28.8 h 28.8 v -28.8 z"
       style="fill:#3399ff;fill-opacity:1;fill-rule:evenodd;stroke:none"
       id="path1495" /><g
       id="g1497"><path
         d="m 330.7,741.7 h -14.4 v 28.8 h 28.8 v -28.8 z"
         style="fill:none;stroke:#000000;stroke-width:1.4999;stroke-linecap:butt;stroke-linejoin:round;stroke-miterlimit:10;stroke-dasharray:none;stroke-opacity:1"
         id="path1499" /></g><path
       d="M 35.5,741.7 H 21.1 v 28.8 h 28.8 v -28.8 z"
       style="fill:#ff6666;fill-opacity:1;fill-rule:evenodd;stroke:none"
       id="path1501" /><g
       id="g1503"><path
         d="M 35.5,741.7 H 21.1 v 28.8 h 28.8 v -28.8 z"
         style="fill:none;stroke:#000000;stroke-width:1.4999;stroke-linecap:butt;stroke-linejoin:round;stroke-miterlimit:10;stroke-dasharray:none;stroke-opacity:1"
         id="path1505" /></g><path
       d="m 186.7,526.2 h 14.4 v -28.8 h -28.8 v 28.8 z"
       style="fill:#cc66ff;fill-opacity:1;fill-rule:evenodd;stroke:none"
       id="path1507" /><g
       id="g1509"><path
         d="m 186.7,526.2 h 14.4 v -28.8 h -28.8 v 28.8 z"
         style="fill:none;stroke:#000000;stroke-width:1.4999;stroke-linecap:butt;stroke-linejoin:round;stroke-miterlimit:10;stroke-dasharray:none;stroke-opacity:1"
         id="path1511" /></g><g
       id="g1513"><path
         d="M 230,741.7 484,632.5"
         style="fill:none;stroke:#00cc00;stroke-width:1.4999;stroke-linecap:butt;stroke-linejoin:round;stroke-miterlimit:10;stroke-dasharray:none;stroke-opacity:1"
         id="path1515" /></g><g
       id="g1517"><path
         d="M 417.1,741.7 484.2,632.5"
         style="fill:none;stroke:#00cc00;stroke-width:1.4999;stroke-linecap:butt;stroke-linejoin:round;stroke-miterlimit:10;stroke-dasharray:none;stroke-opacity:1"
         id="path1519" /></g><g
       id="g1521"><path
         d="M 484.2,631.8 424.3,526.2"
         style="fill:none;stroke:#00cc00;stroke-width:1.4999;stroke-linecap:butt;stroke-linejoin:round;stroke-miterlimit:10;stroke-dasharray:none;stroke-opacity:1"
         id="path1523" /></g><path
       d="m 237.1,741.7 h -43.2 v 28.8 h 86.4 v -28.8 z"
       style="fill:#ff6666;fill-opacity:1;fill-rule:evenodd;stroke:none"
       id="path1525" /><g
       id="g1527"><path
         d="m 237.1,741.7 h -43.2 v 28.8 h 86.4 v -28.8 z"
         style="fill:none;stroke:#000000;stroke-width:1.4999;stroke-linecap:butt;stroke-linejoin:round;stroke-miterlimit:10;stroke-dasharray:none;stroke-opacity:1"
         id="path1529" /></g><g
       id="g1531"><g
         id="g1533" /><g
         id="g1545"><g
           clip-path="url(#clipPath1537)"
           opacity="0.1"
           id="g1543"><g
             id="g1541"><path
               d="M 222.7,770.5 V 741.7"
               style="fill:none;stroke:#000000;stroke-width:1.4999;stroke-linecap:butt;stroke-linejoin:round;stroke-miterlimit:10;stroke-dasharray:none;stroke-opacity:1"
               id="path1539" /></g></g></g></g><g
       id="g1547"><g
         id="g1549" /><g
         id="g1561"><g
           clip-path="url(#clipPath1553)"
           opacity="0.1"
           id="g1559"><g
             id="g1557"><path
               d="M 251.5,770.5 V 741.7"
               style="fill:none;stroke:#000000;stroke-width:1.4999;stroke-linecap:butt;stroke-linejoin:round;stroke-miterlimit:10;stroke-dasharray:none;stroke-opacity:1"
               id="path1555" /></g></g></g></g><path
       d="m 395.5,741.7 h -43.2 v 28.8 h 86.4 v -28.8 z"
       style="fill:#3399ff;fill-opacity:1;fill-rule:evenodd;stroke:none"
       id="path1563" /><g
       id="g1565"><path
         d="m 395.5,741.7 h -43.2 v 28.8 h 86.4 v -28.8 z"
         style="fill:none;stroke:#000000;stroke-width:1.4999;stroke-linecap:butt;stroke-linejoin:round;stroke-miterlimit:10;stroke-dasharray:none;stroke-opacity:1"
         id="path1567" /></g><g
       id="g1569"><g
         id="g1571" /><g
         id="g1583"><g
           clip-path="url(#clipPath1575)"
           opacity="0.1"
           id="g1581"><g
             id="g1579"><path
               d="M 381.1,770.5 V 741.7"
               style="fill:none;stroke:#000000;stroke-width:1.4999;stroke-linecap:butt;stroke-linejoin:round;stroke-miterlimit:10;stroke-dasharray:none;stroke-opacity:1"
               id="path1577" /></g></g></g></g><g
       id="g1585"><g
         id="g1587" /><g
         id="g1599"><g
           clip-path="url(#clipPath1591)"
           opacity="0.1"
           id="g1597"><g
             id="g1595"><path
               d="M 409.9,770.5 V 741.7"
               style="fill:none;stroke:#000000;stroke-width:1.4999;stroke-linecap:butt;stroke-linejoin:round;stroke-miterlimit:10;stroke-dasharray:none;stroke-opacity:1"
               id="path1593" /></g></g></g></g><path
       d="m 388.3,526.2 h 43.2 v -28.8 h -86.4 v 28.8 z"
       style="fill:#cc66ff;fill-opacity:1;fill-rule:evenodd;stroke:none"
       id="path1601" /><g
       id="g1603"><path
         d="m 388.3,526.2 h 43.2 v -28.8 h -86.4 v 28.8 z"
         style="fill:none;stroke:#000000;stroke-width:1.4999;stroke-linecap:butt;stroke-linejoin:round;stroke-miterlimit:10;stroke-dasharray:none;stroke-opacity:1"
         id="path1605" /></g><g
       id="g1607"><g
         id="g1609" /><g
         id="g1621"><g
           clip-path="url(#clipPath1613)"
           opacity="0.1"
           id="g1619"><g
             id="g1617"><path
               d="m 373.9,497.4 v 28.8"
               style="fill:none;stroke:#000000;stroke-width:1.4999;stroke-linecap:butt;stroke-linejoin:round;stroke-miterlimit:10;stroke-dasharray:none;stroke-opacity:1"
               id="path1615" /></g></g></g></g><g
       id="g1623"><g
         id="g1625" /><g
         id="g1637"><g
           clip-path="url(#clipPath1629)"
           opacity="0.1"
           id="g1635"><g
             id="g1633"><path
               d="m 402.7,497.4 v 28.8"
               style="fill:none;stroke:#000000;stroke-width:1.4999;stroke-linecap:butt;stroke-linejoin:round;stroke-miterlimit:10;stroke-dasharray:none;stroke-opacity:1"
               id="path1631" /></g></g></g></g></g></svg>
